<svg width="367" height="408" viewBox="0 0 367 408" fill="none" xmlns="http://www.w3.org/2000/svg">
<path d="M0 305.777L3.2336e-05 101.926L101.926 158.551V249.718L183.467 295.585L265.007 249.718V158.551L366.933 101.926V305.777L183.467 407.703L0 305.777Z" fill="#192657"/>
<path fill-rule="evenodd" clip-rule="evenodd" d="M50.963 130.239L0 101.926L183.467 0L366.933 101.926L315.97 130.239V280.296L183.467 356.741L50.9629 280.296L50.963 130.239ZM310.45 133.306L265.007 158.551V157.985L183.467 112.118L101.926 157.985V158.551L56.4839 133.306V277.16L183.467 350.419L310.45 277.16V133.306Z" fill="url(#paint0_linear_43_9)"/>
<defs>
<linearGradient id="paint0_linear_43_9" x1="50.9629" y1="79.2754" x2="326.163" y2="79.2756" gradientUnits="userSpaceOnUse">
<stop stop-color="#64C2DB"/>
<stop offset="0.307292" stop-color="#7476ED"/>
<stop offset="0.604167" stop-color="#C994DF"/>
<stop offset="1" stop-color="#E56F8C"/>
</linearGradient>
</defs>
</svg>
