<svg width="153" height="38" viewBox="0 0 153 38" fill="none" xmlns="http://www.w3.org/2000/svg">
<path d="M0.878784 28.1818L0.878787 9.39392L10.2727 14.6128V23.0151L17.7879 27.2424L25.303 23.0151V14.6128L34.697 9.39392V28.1818L17.7879 37.5757L0.878784 28.1818Z" fill="#192657"/>
<path fill-rule="evenodd" clip-rule="evenodd" d="M5.57576 12.0034L0.878784 9.39394L17.7879 0L34.697 9.39394L30 12.0034V25.8333L17.7879 32.8788L5.57575 25.8333L5.57576 12.0034ZM29.4912 12.2861L25.303 14.6128V14.5606L17.7879 10.3333L10.2727 14.5606V14.6128L6.08459 12.2861V25.5443L17.7879 32.2962L29.4912 25.5443V12.2861Z" fill="url(#paint0_linear_22_23)"/>
<path fill-rule="evenodd" clip-rule="evenodd" d="M5.57576 12.0034L0.878784 9.39394L17.7879 0L34.697 9.39394L30 12.0034V25.8333L17.7879 32.8788L5.57575 25.8333L5.57576 12.0034ZM29.4912 12.2861L25.303 14.6128V14.5606L17.7879 10.3333L10.2727 14.5606V14.6128L6.08459 12.2861V25.5443L17.7879 32.2962L29.4912 25.5443V12.2861Z" fill="url(#paint1_linear_22_23)"/>
<path d="M51.32 26.14C50.2933 26.14 49.3733 25.9733 48.56 25.64C47.7467 25.3067 47.0933 24.8133 46.6 24.16C46.12 23.5067 45.8667 22.72 45.84 21.8H49.48C49.5333 22.32 49.7133 22.72 50.02 23C50.3267 23.2667 50.7267 23.4 51.22 23.4C51.7267 23.4 52.1267 23.2867 52.42 23.06C52.7133 22.82 52.86 22.4933 52.86 22.08C52.86 21.7333 52.74 21.4467 52.5 21.22C52.2733 20.9933 51.9867 20.8067 51.64 20.66C51.3067 20.5133 50.8267 20.3467 50.2 20.16C49.2933 19.88 48.5533 19.6 47.98 19.32C47.4067 19.04 46.9133 18.6267 46.5 18.08C46.0867 17.5333 45.88 16.82 45.88 15.94C45.88 14.6333 46.3533 13.6133 47.3 12.88C48.2467 12.1333 49.48 11.76 51 11.76C52.5467 11.76 53.7933 12.1333 54.74 12.88C55.6867 13.6133 56.1933 14.64 56.26 15.96H52.56C52.5333 15.5067 52.3667 15.1533 52.06 14.9C51.7533 14.6333 51.36 14.5 50.88 14.5C50.4667 14.5 50.1333 14.6133 49.88 14.84C49.6267 15.0533 49.5 15.3667 49.5 15.78C49.5 16.2333 49.7133 16.5867 50.14 16.84C50.5667 17.0933 51.2333 17.3667 52.14 17.66C53.0467 17.9667 53.78 18.26 54.34 18.54C54.9133 18.82 55.4067 19.2267 55.82 19.76C56.2333 20.2933 56.44 20.98 56.44 21.82C56.44 22.62 56.2333 23.3467 55.82 24C55.42 24.6533 54.8333 25.1733 54.06 25.56C53.2867 25.9467 52.3733 26.14 51.32 26.14ZM61.9647 11.96V26H58.5447V11.96H61.9647ZM80.3431 11.96V26H76.9231V17.58L73.7831 26H71.0231L67.8631 17.56V26H64.4431V11.96H68.4831L72.4231 21.68L76.3231 11.96H80.3431ZM91.5425 23.52H86.3025L85.4625 26H81.8825L86.9625 11.96H90.9225L96.0025 26H92.3825L91.5425 23.52ZM90.6625 20.88L88.9225 15.74L87.2025 20.88H90.6625ZM105.689 26L100.969 19.8V26H97.5486V11.96H100.969V18.12L105.649 11.96H109.669L104.229 18.84L109.869 26H105.689ZM114.914 11.96V26H111.494V11.96H114.914ZM129.952 26H126.532L120.812 17.34V26H117.392V11.96H120.812L126.532 20.66V11.96H129.952V26ZM137.511 26.14C136.485 26.14 135.565 25.9733 134.751 25.64C133.938 25.3067 133.285 24.8133 132.791 24.16C132.311 23.5067 132.058 22.72 132.031 21.8H135.671C135.725 22.32 135.905 22.72 136.211 23C136.518 23.2667 136.918 23.4 137.411 23.4C137.918 23.4 138.318 23.2867 138.611 23.06C138.905 22.82 139.051 22.4933 139.051 22.08C139.051 21.7333 138.931 21.4467 138.691 21.22C138.465 20.9933 138.178 20.8067 137.831 20.66C137.498 20.5133 137.018 20.3467 136.391 20.16C135.485 19.88 134.745 19.6 134.171 19.32C133.598 19.04 133.105 18.6267 132.691 18.08C132.278 17.5333 132.071 16.82 132.071 15.94C132.071 14.6333 132.545 13.6133 133.491 12.88C134.438 12.1333 135.671 11.76 137.191 11.76C138.738 11.76 139.985 12.1333 140.931 12.88C141.878 13.6133 142.385 14.64 142.451 15.96H138.751C138.725 15.5067 138.558 15.1533 138.251 14.9C137.945 14.6333 137.551 14.5 137.071 14.5C136.658 14.5 136.325 14.6133 136.071 14.84C135.818 15.0533 135.691 15.3667 135.691 15.78C135.691 16.2333 135.905 16.5867 136.331 16.84C136.758 17.0933 137.425 17.3667 138.331 17.66C139.238 17.9667 139.971 18.26 140.531 18.54C141.105 18.82 141.598 19.2267 142.011 19.76C142.425 20.2933 142.631 20.98 142.631 21.82C142.631 22.62 142.425 23.3467 142.011 24C141.611 24.6533 141.025 25.1733 140.251 25.56C139.478 25.9467 138.565 26.14 137.511 26.14Z" fill="#192657"/>
<defs>
<linearGradient id="paint0_linear_22_23" x1="5.57575" y1="7.30638" x2="30.9394" y2="7.30639" gradientUnits="userSpaceOnUse">
<stop stop-color="#64C2DB"/>
<stop offset="0.307292" stop-color="#7476ED"/>
<stop offset="0.604167" stop-color="#C994DF"/>
<stop offset="1" stop-color="#E56F8C"/>
</linearGradient>
<linearGradient id="paint1_linear_22_23" x1="5.57575" y1="7.30638" x2="30.9394" y2="7.30639" gradientUnits="userSpaceOnUse">
<stop stop-color="#64C2DB"/>
<stop offset="0.307292" stop-color="#7476ED"/>
<stop offset="0.604167" stop-color="#C994DF"/>
<stop offset="1" stop-color="#E56F8C"/>
</linearGradient>
</defs>
</svg>
