<svg width="803" height="617" viewBox="0 0 803 617" fill="none" xmlns="http://www.w3.org/2000/svg">
<path d="M273 457.5H119V426.5H273V457.5ZM121 455.5H271V428.5H121V455.5Z" fill="#3F3D56"/>
<path d="M254 452C259.523 452 264 447.523 264 442C264 436.477 259.523 432 254 432C248.477 432 244 436.477 244 442C244 447.523 248.477 452 254 452Z" fill="#4373FF"/>
<path d="M226 452C231.523 452 236 447.523 236 442C236 436.477 231.523 432 226 432C220.477 432 216 436.477 216 442C216 447.523 220.477 452 226 452Z" fill="#4373FF"/>
<path d="M198 452C203.523 452 208 447.523 208 442C208 436.477 203.523 432 198 432C192.477 432 188 436.477 188 442C188 447.523 192.477 452 198 452Z" fill="#4373FF"/>
<path d="M170 452C175.523 452 180 447.523 180 442C180 436.477 175.523 432 170 432C164.477 432 160 436.477 160 442C160 447.523 164.477 452 170 452Z" fill="#4373FF"/>
<path d="M142 452C147.523 452 152 447.523 152 442C152 436.477 147.523 432 142 432C136.477 432 132 436.477 132 442C132 447.523 136.477 452 142 452Z" fill="#4373FF"/>
<path d="M662 480H538V506H662V480Z" fill="#4373FF"/>
<path d="M689 352H507V376H689V352Z" fill="#F0F0F0"/>
<path d="M778 615H0V617H778V615Z" fill="#3F3D56"/>
<path d="M720.186 617H492.814C485.705 616.992 478.89 614.164 473.863 609.137C468.836 604.11 466.008 597.295 466 590.186V167.814C466.008 160.705 468.836 153.89 473.863 148.863C478.89 143.836 485.705 141.008 492.814 141H720.186C727.295 141.008 734.11 143.836 739.137 148.863C744.164 153.89 746.992 160.705 747 167.814V590.186C746.992 597.295 744.164 604.11 739.137 609.137C734.11 614.164 727.295 616.992 720.186 617ZM492.814 143C486.236 143.007 479.928 145.624 475.276 150.276C470.624 154.928 468.007 161.236 468 167.814V590.186C468.007 596.764 470.624 603.072 475.276 607.724C479.928 612.376 486.236 614.993 492.814 615H720.186C726.764 614.993 733.072 612.376 737.724 607.724C742.376 603.072 744.993 596.764 745 590.186V167.814C744.993 161.236 742.376 154.928 737.724 150.276C733.072 145.624 726.764 143.007 720.186 143H492.814Z" fill="#3F3D56"/>
<path d="M579.5 161C578.313 161 577.153 160.648 576.167 159.989C575.18 159.33 574.411 158.392 573.957 157.296C573.503 156.2 573.384 154.993 573.615 153.829C573.847 152.666 574.418 151.596 575.257 150.757C576.096 149.918 577.166 149.347 578.329 149.115C579.493 148.884 580.7 149.003 581.796 149.457C582.892 149.911 583.83 150.68 584.489 151.667C585.148 152.653 585.5 153.813 585.5 155C585.498 156.591 584.866 158.116 583.741 159.241C582.616 160.366 581.091 160.998 579.5 161ZM579.5 151C578.709 151 577.936 151.235 577.278 151.674C576.62 152.114 576.107 152.738 575.805 153.469C575.502 154.2 575.422 155.004 575.577 155.78C575.731 156.556 576.112 157.269 576.672 157.828C577.231 158.388 577.944 158.769 578.72 158.923C579.496 159.077 580.3 158.998 581.031 158.696C581.762 158.393 582.386 157.88 582.826 157.222C583.265 156.564 583.5 155.791 583.5 155C583.499 153.939 583.077 152.923 582.327 152.173C581.577 151.423 580.561 151.001 579.5 151Z" fill="#3F3D56"/>
<path d="M638.5 154H594.5V156H638.5V154Z" fill="#3F3D56"/>
<path d="M729 170V250C707.783 249.999 687.435 241.57 672.432 226.568C657.43 211.565 649.001 191.217 649 170H729Z" fill="#4373FF"/>
<path d="M730 590H483V169H730V590ZM485 588H728V171H485V588Z" fill="#3F3D56"/>
<path opacity="0.1" d="M671 245C685.912 245 698 232.912 698 218C698 203.088 685.912 191 671 191C656.088 191 644 203.088 644 218C644 232.912 656.088 245 671 245Z" fill="black"/>
<path d="M667 248C681.912 248 694 235.912 694 221C694 206.088 681.912 194 667 194C652.088 194 640 206.088 640 221C640 235.912 652.088 248 667 248Z" fill="#4373FF"/>
<path d="M532 186H494V200H532V186Z" fill="#3F3D56"/>
<path d="M553 319H515V333H553V319Z" fill="#3F3D56"/>
<path d="M699 371H515V345H699V371ZM517 369H697V347H517V369Z" fill="#3F3D56"/>
<path d="M689 428H507V452H689V428Z" fill="#F0F0F0"/>
<path d="M553 395H515V409H553V395Z" fill="#3F3D56"/>
<path d="M699 447H515V421H699V447ZM517 445H697V423H517V445Z" fill="#3F3D56"/>
<path d="M670 500H544V472H670V500ZM546 498H668V474H546V498Z" fill="#3F3D56"/>
<path d="M694 361C694 363.059 693.364 365.067 692.18 366.751C690.996 368.435 689.321 369.713 687.384 370.41C685.447 371.106 683.342 371.188 681.356 370.644C679.371 370.1 677.601 368.957 676.29 367.37L676.28 367.36C675.324 366.2 674.642 364.84 674.284 363.381C673.926 361.921 673.902 360.4 674.213 358.929C674.524 357.459 675.162 356.078 676.081 354.888C676.999 353.699 678.174 352.732 679.517 352.059C680.861 351.386 682.339 351.024 683.842 351.001C685.344 350.978 686.833 351.294 688.197 351.925C689.56 352.557 690.764 353.487 691.719 354.648C692.673 355.809 693.354 357.17 693.71 358.63C693.71 358.631 693.71 358.633 693.711 358.634C693.711 358.635 693.712 358.636 693.713 358.637C693.714 358.638 693.715 358.639 693.716 358.639C693.717 358.64 693.719 358.64 693.72 358.64C693.905 359.413 693.999 360.205 694 361Z" fill="#4373FF"/>
<path opacity="0.1" d="M694 361C694 363.059 693.364 365.067 692.18 366.751C690.996 368.435 689.321 369.713 687.384 370.41C685.447 371.106 683.342 371.188 681.356 370.644C679.371 370.1 677.601 368.957 676.29 367.37L676.28 367.36C676.095 366.587 676.001 365.795 676 365C676 362.941 676.636 360.933 677.82 359.249C679.004 357.565 680.679 356.287 682.616 355.59C684.553 354.893 686.658 354.811 688.644 355.356C690.629 355.9 692.399 357.043 693.71 358.63C693.71 358.631 693.71 358.633 693.711 358.634C693.711 358.635 693.712 358.636 693.713 358.637C693.714 358.638 693.715 358.639 693.716 358.639C693.717 358.64 693.719 358.64 693.72 358.64C693.905 359.413 693.999 360.205 694 361Z" fill="black"/>
<path d="M688 377C693.523 377 698 372.523 698 367C698 361.477 693.523 357 688 357C682.477 357 678 361.477 678 367C678 372.523 682.477 377 688 377Z" fill="#4373FF"/>
<path d="M694 437C694 439.059 693.364 441.067 692.18 442.751C690.996 444.435 689.321 445.713 687.384 446.41C685.447 447.106 683.342 447.188 681.356 446.644C679.371 446.1 677.601 444.957 676.29 443.37L676.28 443.36C675.324 442.2 674.642 440.84 674.284 439.381C673.926 437.921 673.902 436.4 674.213 434.929C674.524 433.459 675.162 432.078 676.081 430.888C676.999 429.699 678.174 428.732 679.517 428.059C680.861 427.386 682.339 427.024 683.842 427.001C685.344 426.978 686.833 427.294 688.197 427.925C689.56 428.557 690.764 429.487 691.719 430.648C692.673 431.809 693.354 433.17 693.71 434.63C693.71 434.631 693.71 434.633 693.711 434.634C693.711 434.635 693.712 434.636 693.713 434.637C693.714 434.638 693.715 434.639 693.716 434.639C693.717 434.64 693.719 434.64 693.72 434.64C693.905 435.413 693.999 436.205 694 437Z" fill="#4373FF"/>
<path opacity="0.1" d="M694 437C694 439.059 693.364 441.067 692.18 442.751C690.996 444.435 689.321 445.713 687.384 446.41C685.447 447.106 683.342 447.188 681.356 446.644C679.371 446.1 677.601 444.957 676.29 443.37L676.28 443.36C676.095 442.587 676.001 441.795 676 441C676 438.941 676.636 436.933 677.82 435.249C679.004 433.565 680.679 432.287 682.616 431.59C684.553 430.893 686.658 430.811 688.644 431.356C690.629 431.9 692.399 433.043 693.71 434.63C693.71 434.631 693.71 434.633 693.711 434.634C693.711 434.635 693.712 434.636 693.713 434.637C693.714 434.638 693.715 434.639 693.716 434.639C693.717 434.64 693.719 434.64 693.72 434.64C693.905 435.413 693.999 436.205 694 437Z" fill="black"/>
<path d="M688 453C693.523 453 698 448.523 698 443C698 437.477 693.523 433 688 433C682.477 433 678 437.477 678 443C678 448.523 682.477 453 688 453Z" fill="#4373FF"/>
<path d="M414.121 239.566L376.281 255.351L360.496 217.511L398.336 201.726L414.121 239.566ZM377.978 251.226L409.996 237.869L396.639 205.851L364.621 219.208L377.978 251.226Z" fill="#3F3D56"/>
<path d="M184.899 427L247.07 329.231L107.836 240.694L35.9316 353.769L151.096 427H184.899Z" fill="#F0F0F0"/>
<path d="M456 113V37H494V0H308V186H467V167.814C467 164.424 467.668 161.068 468.965 157.936C470.262 154.804 472.164 151.958 474.561 149.561C476.958 147.164 479.804 145.262 482.936 143.965C486.068 142.668 489.424 142 492.814 142H494V113H456Z" fill="#F0F0F0"/>
<path d="M520 48H468V100H520V48Z" fill="#F0F0F0"/>
<path d="M671 86C668.627 86 666.307 85.2962 664.333 83.9776C662.36 82.6591 660.822 80.7849 659.913 78.5922C659.005 76.3995 658.768 73.9867 659.231 71.6589C659.694 69.3312 660.836 67.193 662.515 65.5147C664.193 63.8365 666.331 62.6936 668.659 62.2306C670.987 61.7676 673.4 62.0052 675.592 62.9135C677.785 63.8217 679.659 65.3598 680.978 67.3332C682.296 69.3066 683 71.6266 683 74C682.996 77.1815 681.731 80.2317 679.481 82.4814C677.232 84.731 674.182 85.9964 671 86ZM671 64C669.022 64 667.089 64.5865 665.444 65.6853C663.8 66.7841 662.518 68.3459 661.761 70.1732C661.004 72.0004 660.806 74.0111 661.192 75.9509C661.578 77.8907 662.53 79.6726 663.929 81.0711C665.327 82.4696 667.109 83.422 669.049 83.8078C670.989 84.1937 673 83.9957 674.827 83.2388C676.654 82.4819 678.216 81.2002 679.315 79.5557C680.414 77.9112 681 75.9778 681 74C680.997 71.3488 679.942 68.807 678.068 66.9323C676.193 65.0576 673.651 64.003 671 64Z" fill="#3F3D56"/>
<path d="M803 447H777V421H803V447ZM779 445H801V423H779V445Z" fill="#3F3D56"/>
<path d="M290.002 272.667L294.464 275.07L309.646 283.252L334.156 296.458L348.44 269.957C349.785 267.466 350.626 264.736 350.915 261.92C351.203 259.105 350.934 256.26 350.122 253.549C349.309 250.837 347.97 248.313 346.182 246.12C344.393 243.927 342.189 242.108 339.696 240.768C334.369 237.891 328.266 236.78 322.267 237.594C316.268 238.408 310.682 241.105 306.315 245.297L306.307 245.304C304.158 247.368 302.344 249.755 300.932 252.379L290.002 272.667Z" fill="#2F2E41"/>
<path d="M356.899 542.937L353.905 575.876L342.675 577.373L335.189 539.942L356.899 542.937Z" fill="#FFB8B8"/>
<path d="M339.681 577.373C339.681 577.373 353.905 569.887 356.9 575.876C356.9 575.876 354.654 593.843 363.637 596.089C372.621 598.335 376.364 614.056 363.637 615.553C350.911 617.051 342.676 612.559 338.184 612.559C333.692 612.559 338.184 596.838 338.184 596.838L339.681 577.373Z" fill="#2F2E41"/>
<path d="M266.316 542.937L269.311 575.876L280.54 577.373L288.026 539.942L266.316 542.937Z" fill="#FFB8B8"/>
<path d="M283.534 577.373C283.534 577.373 269.31 569.887 266.316 575.876C266.316 575.876 268.561 593.843 259.578 596.089C250.594 598.335 246.851 614.056 259.578 615.553C272.305 617.051 280.54 612.559 285.031 612.559C289.523 612.559 285.031 596.838 285.031 596.838L283.534 577.373Z" fill="#2F2E41"/>
<path d="M327.703 278.67C338.453 278.67 347.167 269.956 347.167 259.206C347.167 248.456 338.453 239.742 327.703 239.742C316.953 239.742 308.238 248.456 308.238 259.206C308.238 269.956 316.953 278.67 327.703 278.67Z" fill="#FFB8B8"/>
<path d="M265.566 297.386L281.288 322.091L300.003 320.594L330.697 322.84C330.697 322.84 333.594 317.045 335.96 311.408C337.255 308.593 338.251 305.65 338.932 302.627C339.681 297.386 329.2 292.146 329.2 292.146C329.2 292.146 328.788 292.071 328.099 291.906C327.186 291.689 325.779 291.33 324.236 290.806C320.755 289.623 316.57 287.617 315.724 284.659C314.227 279.419 325.457 271.933 325.457 271.933L311.981 259.206C311.981 259.206 300.011 275.833 285.472 279.621C284.63 279.844 283.775 280.019 282.912 280.145C282.867 280.153 282.83 280.16 282.785 280.168C267.064 282.414 265.566 297.386 265.566 297.386Z" fill="#FFB8B8"/>
<path d="M273.803 290.648L265.568 297.386C265.568 297.386 258.83 329.577 261.076 338.561C263.322 347.544 260.327 355.779 260.327 357.276C260.327 358.774 253.59 414.921 253.59 414.921C253.59 414.921 240.114 444.866 254.338 441.872C268.562 438.877 263.322 408.932 263.322 408.932L280.54 356.528V312.359L273.803 290.648Z" fill="#FFB8B8"/>
<path d="M332.944 296.638L338.933 301.129L341.927 364.014L364.386 417.916C364.386 417.916 380.856 444.118 370.375 444.866C359.894 445.615 353.157 417.916 353.157 417.916L332.944 366.26L329.949 316.102L332.944 296.638Z" fill="#FFB8B8"/>
<path d="M295.512 301.129C295.512 301.129 310.484 311.61 334.44 307.867C334.44 307.867 341.178 321.342 337.435 328.829C333.692 336.315 341.927 354.282 343.424 356.528C344.921 358.774 362.14 405.189 368.129 455.347C374.118 505.505 390.588 539.942 376.364 544.434C362.14 548.926 332.943 554.166 329.949 549.674C326.954 545.182 322.462 433.637 322.462 433.637L314.227 476.309C314.227 476.309 325.457 548.926 317.222 550.423C308.987 551.92 257.332 547.428 258.829 538.445C260.326 529.461 275.299 482.298 275.299 482.298C275.299 482.298 274.55 387.97 289.523 370.003C289.523 370.003 295.512 360.271 287.277 347.544C279.042 334.818 279.79 314.605 279.79 314.605C279.79 314.605 285.779 314.605 295.512 301.129Z" fill="#2F2E41"/>
<path d="M282.912 280.145L295.512 307.867L298.506 306.37L285.472 279.621L282.912 280.145Z" fill="#2F2E41"/>
<path d="M324.238 290.806L333.693 311.61L335.962 311.408L335.191 307.867L328.101 291.906C327.188 291.689 325.78 291.33 324.238 290.806Z" fill="#2F2E41"/>
<path d="M294.464 275.07C295.184 277.385 296.572 279.437 298.452 280.968C300.333 282.5 302.624 283.442 305.038 283.677C307.452 283.912 309.881 283.429 312.022 282.29C314.163 281.15 315.92 279.404 317.073 277.27C307.603 264.888 315.726 257.11 331.11 251.226C332.269 249.075 332.761 246.628 332.525 244.196C332.29 241.765 331.335 239.458 329.785 237.571C325.544 237.028 321.236 237.441 317.176 238.777C313.115 240.114 309.404 242.341 306.315 245.297L306.308 245.304L295.378 265.577C294.599 267.018 294.118 268.6 293.961 270.231C293.804 271.861 293.975 273.506 294.464 275.07Z" fill="#2F2E41"/>
<path d="M316.101 265.944C317.548 265.944 318.721 263.933 318.721 261.452C318.721 258.971 317.548 256.96 316.101 256.96C314.654 256.96 313.48 258.971 313.48 261.452C313.48 263.933 314.654 265.944 316.101 265.944Z" fill="#FFB8B8"/>
<path d="M323.908 254.123L346.412 264.319L350.537 255.216C349.826 251.889 348.338 248.777 346.195 246.135L330.706 239.121L323.908 254.123Z" fill="#2F2E41"/>
<path d="M378 455C383.523 455 388 450.523 388 445C388 439.477 383.523 435 378 435C372.477 435 368 439.477 368 445C368 450.523 372.477 455 378 455Z" fill="#4373FF"/>
<path d="M56.9572 514.447C60.5666 514.447 63.4926 511.521 63.4926 507.911C63.4926 504.302 60.5666 501.376 56.9572 501.376C53.3479 501.376 50.4219 504.302 50.4219 507.911C50.4219 511.521 53.3479 514.447 56.9572 514.447Z" fill="#FF6584"/>
<path d="M89.9746 541.973H87.9746V616.384H89.9746V541.973Z" fill="#3F3D56"/>
<path d="M88.9759 552.495C94.7875 552.495 99.4988 547.784 99.4988 541.973C99.4988 536.161 94.7875 531.45 88.9759 531.45C83.1644 531.45 78.4531 536.161 78.4531 541.973C78.4531 547.784 83.1644 552.495 88.9759 552.495Z" fill="#3F3D56"/>
<path d="M88.9744 587.834C88.9744 587.834 87.4711 555.502 56.6543 559.26L88.9744 587.834Z" fill="#3F3D56"/>
<path d="M387.052 233.08L386.123 233.45L386.499 234.395L387.437 234.003L387.052 233.08ZM386.861 227.387L385.931 227.021L385.925 227.034L385.921 227.047L386.861 227.387ZM387.938 224.652L388.868 225.019L388.877 224.997L388.884 224.975L387.938 224.652ZM386.142 219.171L385.722 220.078L385.73 220.082L386.142 219.171ZM381.412 223.498L381.797 224.42L382.72 224.035L382.335 223.113L381.412 223.498ZM378.744 224.61L377.817 224.984L378.195 225.923L379.129 225.533L378.744 224.61ZM378.833 220.155L379.73 220.595L379.731 220.595L378.833 220.155ZM387.353 216.634L386.986 217.565L386.995 217.568L387.353 216.634ZM390.293 225.955L391.216 226.34L391.222 226.327L391.227 226.313L390.293 225.955ZM389.371 228.168L388.448 227.784L388.437 227.81L388.428 227.837L389.371 228.168ZM389.72 231.968L390.105 232.891L391.028 232.506L390.643 231.583L389.72 231.968ZM388.782 236.456L387.839 236.123L387.838 236.125L388.782 236.456ZM391.147 235.469L390.72 236.374L390.727 236.377L390.735 236.381L391.147 235.469ZM392.049 237.632L392.981 237.997L392.984 237.989L392.987 237.981L392.049 237.632ZM389.684 238.619L389.256 239.523L389.272 239.53L389.288 239.537L389.684 238.619ZM387.981 232.711C387.542 231.606 387.338 230.766 387.309 230.159L385.312 230.255C385.355 231.176 385.646 232.251 386.123 233.45L387.981 232.711ZM387.309 230.159C387.282 229.58 387.421 228.78 387.801 227.727L385.921 227.047C385.494 228.226 385.266 229.307 385.312 230.255L387.309 230.159ZM387.791 227.753L388.868 225.019L387.008 224.286L385.931 227.021L387.791 227.753ZM388.884 224.975C389.376 223.534 389.391 222.129 388.845 220.82L386.999 221.59C387.327 222.377 387.353 223.27 386.992 224.329L388.884 224.975ZM388.845 220.82C388.357 219.65 387.614 218.74 386.555 218.26L385.73 220.082C386.202 220.296 386.645 220.742 386.999 221.59L388.845 220.82ZM386.563 218.264C385.47 217.758 384.278 217.85 383.089 218.345L383.859 220.191C384.689 219.845 385.276 219.872 385.722 220.078L386.563 218.264ZM383.089 218.345C381.941 218.824 381.048 219.558 380.538 220.59L382.331 221.477C382.579 220.974 383.046 220.531 383.859 220.191L383.089 218.345ZM380.538 220.59C380.015 221.647 380.026 222.773 380.489 223.883L382.335 223.113C382.068 222.473 382.094 221.956 382.331 221.477L380.538 220.59ZM381.027 222.575L378.359 223.687L379.129 225.533L381.797 224.42L381.027 222.575ZM379.672 224.237C379.138 222.911 379.177 221.724 379.73 220.595L377.935 219.714C377.11 221.396 377.09 223.178 377.817 224.984L379.672 224.237ZM379.731 220.595C380.298 219.436 381.312 218.511 382.885 217.855L382.115 216.009C380.188 216.813 378.757 218.037 377.935 219.715L379.731 220.595ZM382.885 217.855C384.534 217.167 385.874 217.126 386.986 217.565L387.72 215.704C385.995 215.024 384.099 215.181 382.115 216.009L382.885 217.855ZM386.995 217.568C388.111 217.996 389.003 218.885 389.631 220.391L391.477 219.621C390.685 217.723 389.443 216.365 387.711 215.701L386.995 217.568ZM389.631 220.391C390.204 221.764 390.175 223.469 389.359 225.597L391.227 226.313C392.162 223.873 392.307 221.612 391.477 219.621L389.631 220.391ZM389.37 225.571L388.448 227.784L390.294 228.553L391.216 226.34L389.37 225.571ZM388.428 227.837C387.941 229.219 388.13 230.753 388.797 232.353L390.643 231.583C390.091 230.26 390.047 229.261 390.314 228.5L388.428 227.837ZM389.335 231.045L386.667 232.158L387.437 234.003L390.105 232.891L389.335 231.045ZM389.767 237.315C389.669 237.082 389.678 236.923 389.725 236.787L387.838 236.125C387.608 236.782 387.657 237.453 387.921 238.085L389.767 237.315ZM389.725 236.789C389.75 236.718 389.824 236.58 390.163 236.439L389.393 234.593C388.694 234.884 388.104 235.373 387.839 236.123L389.725 236.789ZM390.163 236.439C390.502 236.297 390.652 236.342 390.72 236.374L391.574 234.565C390.854 234.226 390.092 234.301 389.393 234.593L390.163 236.439ZM390.735 236.381C390.87 236.442 390.986 236.544 391.079 236.768L392.925 235.998C392.657 235.356 392.202 234.849 391.559 234.558L390.735 236.381ZM391.079 236.768C391.172 236.991 391.164 237.145 391.112 237.284L392.987 237.981C393.233 237.319 393.192 236.639 392.925 235.998L391.079 236.768ZM391.118 237.268C391.094 237.33 391.013 237.472 390.656 237.621L391.426 239.467C392.107 239.183 392.699 238.717 392.981 237.997L391.118 237.268ZM390.656 237.621C390.299 237.77 390.141 237.727 390.081 237.701L389.288 239.537C389.998 239.844 390.745 239.751 391.426 239.467L390.656 237.621ZM390.113 237.715C389.982 237.654 389.864 237.548 389.767 237.315L387.921 238.085C388.185 238.717 388.626 239.224 389.256 239.523L390.113 237.715Z" fill="#3F3D56"/>
</svg>
