<svg width="1075" height="879" viewBox="0 0 1075 879" fill="none" xmlns="http://www.w3.org/2000/svg">
<path d="M1074.89 878.284C1022.8 870.655 972.709 864.078 924.61 858.554L943.63 827.776C937.218 825.882 909.045 843.428 909.045 843.428L934.012 753.948C901.764 757.054 885.355 848.461 885.355 848.461L849.33 817.365L866.768 852.218C719.555 837.023 592.417 831.054 485.478 830.365L501.757 804.023C495.345 802.128 467.172 819.674 467.172 819.674L492.139 730.194C459.891 733.301 443.482 824.707 443.482 824.707L407.457 793.611L425.926 830.527C336.275 831.613 263.166 836.398 206.736 841.978C223.203 800.9 279.129 762.018 279.129 762.018C236.421 772.454 214.017 790.169 202.309 806.728C201.414 755.91 207.435 661.728 252.165 557.633C252.165 557.633 163.869 718.042 175.117 826.041L176.461 845.216C101.625 853.841 64 863 64 863L1074.89 878.284Z" fill="#3F3D56"/>
<path opacity="0.1" d="M280.159 31.2601C310.939 3.83006 359.269 -1.73994 403.249 0.420062C541.409 7.29006 666.119 73.9801 773.989 149.42C813.039 176.73 851.489 206.16 876.839 243.77C928.439 320.34 913.139 426.4 841.379 489.47C816.969 510.93 787.379 527.38 756.989 541.97C702.989 567.9 644.679 588.71 583.369 594.64C539.639 598.86 495.369 595.43 451.909 589.53C330.449 573.07 211.259 536.62 111.349 474.34C67.5292 447.01 26.2192 413.04 8.15916 368.82C-9.90084 324.6 1.65916 268.62 46.4492 242.42C64.9592 231.6 87.0892 226.71 108.749 222.12C140.639 215.36 173.039 208.7 201.809 194.97C231.529 180.78 266.729 153.34 260.809 121.97C254.449 88.2501 249.449 58.6201 280.159 31.2601Z" fill="#6398FF"/>
<path d="M601.527 180.13V828.33C601.52 836.052 598.447 843.454 592.986 848.912C587.524 854.371 580.119 857.438 572.397 857.44H309.247C305.422 857.447 301.632 856.698 298.096 855.238C294.56 853.778 291.347 851.634 288.641 848.93C285.935 846.226 283.789 843.014 282.327 839.479C280.864 835.944 280.113 832.156 280.117 828.33V180.13C280.117 176.305 280.87 172.516 282.334 168.982C283.798 165.448 285.943 162.236 288.648 159.531C291.353 156.826 294.565 154.681 298.099 153.217C301.634 151.753 305.422 151 309.247 151H348.627V156.05C348.626 162.411 351.152 168.512 355.649 173.011C360.146 177.51 366.246 180.038 372.607 180.04H506.447C511.567 180.051 516.554 178.41 520.667 175.36C521.499 174.755 522.287 174.094 523.027 173.38C525.37 171.143 527.234 168.453 528.506 165.474C529.778 162.496 530.432 159.289 530.427 156.05V151H572.397C576.223 150.999 580.011 151.752 583.546 153.215C587.081 154.679 590.293 156.824 592.998 159.529C595.703 162.235 597.849 165.446 599.312 168.981C600.776 172.516 601.528 176.304 601.527 180.13Z" fill="#3F3D56"/>
<path d="M353.426 266C357.292 266 360.426 262.866 360.426 259C360.426 255.134 357.292 252 353.426 252C349.56 252 346.426 255.134 346.426 259C346.426 262.866 349.56 266 353.426 266Z" fill="#F2F2F2"/>
<path d="M523.026 173.38C522.286 174.094 521.497 174.755 520.666 175.36C529.239 190.447 540.854 203.587 554.773 213.949C568.693 224.31 584.614 231.666 601.526 235.55V232.43C585.07 228.548 569.598 221.296 556.087 211.133C542.576 200.969 531.318 188.114 523.026 173.38Z" fill="#3A76FF"/>
<path d="M463.216 180.04H459.936C471.58 209.626 490.785 235.638 515.631 255.476C540.478 275.315 570.096 288.285 601.526 293.09V289.99C570.914 285.236 542.066 272.6 517.817 253.323C493.567 234.045 474.751 208.791 463.216 180.04Z" fill="#3A76FF"/>
<path d="M402.797 180.04H399.637C426.067 271.78 505.817 340.07 601.527 351.16V348.11C507.477 337.07 429.097 270.08 402.797 180.04Z" fill="#3A76FF"/>
<path d="M330.426 310.822H328.604V309H328.249V310.822H326.426V311.178H328.249V313H328.604V311.178H330.426V310.822Z" fill="#F2F2F2"/>
<path d="M453.426 219.822H451.604V218H451.249V219.822H449.426V220.178H451.249V222H451.604V220.178H453.426V219.822Z" fill="#F2F2F2"/>
<path d="M348.426 382.822H346.604V381H346.249V382.822H344.426V383.178H346.249V385H346.604V383.178H348.426V382.822Z" fill="#F2F2F2"/>
<path d="M432.426 329.822H430.604V328H430.249V329.822H428.426V330.178H430.249V332H430.604V330.178H432.426V329.822Z" fill="#F2F2F2"/>
<path d="M552.426 362.822H550.604V361H550.249V362.822H548.426V363.178H550.249V365H550.604V363.178H552.426V362.822Z" fill="#F2F2F2"/>
<path d="M531.426 280C533.635 280 535.426 278.209 535.426 276C535.426 273.791 533.635 272 531.426 272C529.217 272 527.426 273.791 527.426 276C527.426 278.209 529.217 280 531.426 280Z" fill="#FF6584"/>
<path d="M388.127 369.8L385.857 370.15C386.567 374.69 387.127 379.33 387.537 383.92L389.827 383.72C389.417 379.07 388.847 374.39 388.127 369.8Z" fill="#E6E6E6"/>
<path d="M381.917 342.46L379.717 343.13C381.047 347.53 382.237 352.04 383.247 356.53L385.497 356.02C384.467 351.48 383.257 346.92 381.917 342.46Z" fill="#E6E6E6"/>
<path d="M372.006 316.24L369.916 317.2C371.836 321.39 373.636 325.69 375.266 329.99L377.416 329.18C375.766 324.83 373.956 320.47 372.006 316.24Z" fill="#E6E6E6"/>
<path d="M358.606 291.66L356.666 292.89C359.136 296.77 361.506 300.79 363.706 304.82L365.726 303.72C363.506 299.64 361.106 295.58 358.606 291.66Z" fill="#E6E6E6"/>
<path d="M341.947 269.13L340.197 270.62C343.177 274.12 346.077 277.78 348.817 281.48L350.657 280.11C347.897 276.37 344.967 272.67 341.947 269.13Z" fill="#E6E6E6"/>
<path d="M322.366 249.07L320.836 250.78C324.276 253.85 327.646 257.08 330.856 260.37L332.506 258.76C329.256 255.43 325.846 252.17 322.366 249.07Z" fill="#E6E6E6"/>
<path d="M300.247 231.85L298.957 233.75C302.777 236.32 306.557 239.06 310.187 241.89L311.607 240.08C307.927 237.22 304.107 234.45 300.247 231.85Z" fill="#E6E6E6"/>
<path d="M280.117 219.89V222.49C282.507 223.74 284.877 225.05 287.197 226.39L288.347 224.4C285.647 222.84 282.904 221.337 280.117 219.89Z" fill="#E6E6E6"/>
<path d="M387.607 585.803C387.98 583.567 388.322 581.284 388.622 579.018L390.901 579.32C390.598 581.611 390.253 583.919 389.876 586.181L387.607 585.803Z" fill="#E6E6E6"/>
<path d="M381.197 612.782L383.395 613.466C384.773 609.023 386.021 604.47 387.102 599.935L384.863 599.405C383.792 603.892 382.566 608.387 381.197 612.782Z" fill="#E6E6E6"/>
<path d="M371.156 638.614L373.243 639.592C375.226 635.384 377.083 631.048 378.767 626.708L376.621 625.871C374.957 630.164 373.12 634.453 371.156 638.614Z" fill="#E6E6E6"/>
<path d="M357.645 662.847L359.573 664.099C362.116 660.2 364.556 656.157 366.827 652.09L364.822 650.965C362.58 654.987 360.16 658.983 357.645 662.847Z" fill="#E6E6E6"/>
<path d="M340.928 684.986L342.67 686.496C345.73 682.968 348.696 679.298 351.507 675.586L349.665 674.209C346.894 677.878 343.957 681.503 340.928 684.986Z" fill="#E6E6E6"/>
<path d="M321.354 704.631L322.868 706.36C326.384 703.292 329.822 700.056 333.108 696.768L331.482 695.139C328.233 698.394 324.824 701.585 321.354 704.631Z" fill="#E6E6E6"/>
<path d="M299.301 721.422L300.571 723.345C304.454 720.782 308.31 718.049 312.009 715.233L310.619 713.397C306.955 716.19 303.146 718.891 299.301 721.422Z" fill="#E6E6E6"/>
<path d="M288.607 730.65C285.827 732.22 282.987 733.74 280.117 735.18V732.6C282.597 731.34 285.057 730.01 287.467 728.66L288.607 730.65Z" fill="#E6E6E6"/>
<path d="M388.281 398.106L390.58 398.064C390.622 400.385 390.625 402.718 390.589 405L388.291 404.964C388.326 402.709 388.323 400.401 388.281 398.106Z" fill="#E6E6E6"/>
<path d="M290.217 452.632H525.427C542.931 452.632 559.719 459.585 572.096 471.963C584.473 484.34 591.427 501.128 591.427 518.632V527.368H356.217C338.712 527.368 321.925 520.415 309.548 508.037C297.17 495.66 290.217 478.872 290.217 461.368V452.632Z" fill="white"/>
<path d="M446.315 856.521C446.086 856.146 440.675 847.111 438.799 828.35C437.078 811.137 438.185 782.123 453.231 741.651C481.737 664.98 446.662 603.118 446.304 602.502L448.034 601.498C448.125 601.654 457.176 617.427 462.522 642.542C469.587 675.839 467.015 710.461 455.106 742.349C426.649 818.889 447.806 855.122 448.022 855.479L446.315 856.521Z" fill="#F2F2F2"/>
<path d="M435.17 598C442.35 598 448.17 592.18 448.17 585C448.17 577.82 442.35 572 435.17 572C427.99 572 422.17 577.82 422.17 585C422.17 592.18 427.99 598 435.17 598Z" fill="#3A76FF"/>
<path d="M476.17 646C483.35 646 489.17 640.18 489.17 633C489.17 625.82 483.35 620 476.17 620C468.99 620 463.17 625.82 463.17 633C463.17 640.18 468.99 646 476.17 646Z" fill="#F2F2F2"/>
<path d="M448.17 678C455.35 678 461.17 672.18 461.17 665C461.17 657.82 455.35 652 448.17 652C440.99 652 435.17 657.82 435.17 665C435.17 672.18 440.99 678 448.17 678Z" fill="#3A76FF"/>
<path d="M482.17 705C489.35 705 495.17 699.18 495.17 692C495.17 684.82 489.35 679 482.17 679C474.99 679 469.17 684.82 469.17 692C469.17 699.18 474.99 705 482.17 705Z" fill="#3A76FF"/>
<path d="M438.17 747C445.35 747 451.17 741.18 451.17 734C451.17 726.82 445.35 721 438.17 721C430.99 721 425.17 726.82 425.17 734C425.17 741.18 430.99 747 438.17 747Z" fill="#F2F2F2"/>
<path d="M454.17 857C454.17 857 441.17 825 480.17 801L454.17 857Z" fill="#F2F2F2"/>
<path d="M438.181 856.42C438.181 856.42 432.265 822.39 386.473 822.682L438.181 856.42Z" fill="#F2F2F2"/>
<path opacity="0.2" d="M386.426 570C430.609 570 466.426 534.183 466.426 490C466.426 445.817 430.609 410 386.426 410C342.243 410 306.426 445.817 306.426 490C306.426 534.183 342.243 570 386.426 570Z" fill="#3A76FF"/>
<path opacity="0.2" d="M386.426 546.338C417.541 546.338 442.764 521.115 442.764 490C442.764 458.886 417.541 433.662 386.426 433.662C355.311 433.662 330.088 458.886 330.088 490C330.088 521.115 355.311 546.338 386.426 546.338Z" fill="#3A76FF"/>
<path d="M386.183 527.183C406.719 527.183 423.366 510.536 423.366 490C423.366 469.464 406.719 452.817 386.183 452.817C365.647 452.817 349 469.464 349 490C349 510.536 365.647 527.183 386.183 527.183Z" fill="#3A76FF"/>
<path d="M394.778 497.778C393.432 499.124 390.55 503.25 388.697 505.973C387.888 507.163 386.118 507.16 385.311 505.968C383.49 503.278 380.66 499.217 379.222 497.778C374.926 493.482 374.926 486.518 379.222 482.222C383.518 477.926 390.482 477.926 394.778 482.222C399.074 486.518 399.074 493.482 394.778 497.778Z" fill="white"/>
<path d="M391.125 490C391.125 492.278 389.278 494.125 387 494.125C384.722 494.125 382.875 492.278 382.875 490C382.875 487.722 384.722 485.875 387 485.875C389.278 485.875 391.125 487.722 391.125 490Z" fill="white"/>
<path d="M211.594 131.498C214.907 131.498 217.594 128.811 217.594 125.498C217.594 122.184 214.907 119.498 211.594 119.498C208.28 119.498 205.594 122.184 205.594 125.498C205.594 128.811 208.28 131.498 211.594 131.498Z" fill="white"/>
<path d="M217.594 153.498C220.907 153.498 223.594 150.811 223.594 147.498C223.594 144.184 220.907 141.498 217.594 141.498C214.28 141.498 211.594 144.184 211.594 147.498C211.594 150.811 214.28 153.498 217.594 153.498Z" fill="white"/>
<g opacity="0.5">
<path opacity="0.5" d="M267.594 365.784H264.594V382.784H267.594V365.784Z" fill="#47E6B1"/>
<path opacity="0.5" d="M274.594 375.784V372.784H257.594V375.784H274.594Z" fill="#47E6B1"/>
</g>
<path opacity="0.5" d="M439.285 364.089C438.458 363.729 437.793 363.078 437.415 362.259C437.038 361.44 436.974 360.511 437.238 359.648C437.28 359.516 437.307 359.379 437.317 359.241C437.341 358.845 437.238 358.453 437.021 358.122C436.805 357.79 436.487 357.537 436.116 357.4C435.745 357.263 435.339 357.249 434.959 357.361C434.579 357.472 434.245 357.703 434.007 358.019C433.925 358.132 433.857 358.253 433.803 358.381C433.443 359.208 432.792 359.873 431.973 360.251C431.154 360.629 430.225 360.692 429.362 360.429C429.23 360.386 429.093 360.359 428.955 360.349C428.559 360.325 428.167 360.429 427.835 360.645C427.504 360.861 427.251 361.179 427.114 361.55C426.977 361.922 426.963 362.327 427.075 362.707C427.186 363.087 427.417 363.421 427.733 363.659C427.846 363.741 427.967 363.81 428.095 363.863C428.922 364.223 429.587 364.875 429.965 365.694C430.342 366.513 430.406 367.442 430.143 368.304C430.1 368.436 430.073 368.573 430.063 368.712C430.039 369.107 430.143 369.499 430.359 369.831C430.575 370.162 430.893 370.415 431.264 370.552C431.636 370.689 432.041 370.703 432.421 370.592C432.801 370.48 433.135 370.249 433.373 369.933C433.455 369.821 433.524 369.699 433.577 369.571C433.937 368.744 434.589 368.079 435.408 367.701C436.226 367.324 437.156 367.261 438.018 367.524C438.15 367.566 438.287 367.593 438.426 367.604C438.821 367.628 439.213 367.524 439.545 367.307C439.876 367.091 440.129 366.774 440.266 366.402C440.403 366.031 440.417 365.625 440.305 365.245C440.194 364.865 439.963 364.531 439.647 364.293C439.535 364.211 439.413 364.143 439.285 364.089Z" fill="#4D8AF0"/>
<path opacity="0.5" d="M585.484 488.74C584.657 488.38 583.992 487.729 583.614 486.91C583.237 486.091 583.174 485.162 583.437 484.299C583.479 484.167 583.506 484.03 583.517 483.892C583.541 483.496 583.437 483.104 583.22 482.772C583.004 482.441 582.687 482.188 582.315 482.051C581.944 481.914 581.538 481.9 581.158 482.012C580.778 482.123 580.444 482.354 580.206 482.67C580.124 482.782 580.056 482.904 580.002 483.032C579.642 483.859 578.991 484.524 578.172 484.902C577.353 485.279 576.424 485.343 575.561 485.08C575.429 485.037 575.292 485.01 575.154 485C574.759 484.976 574.366 485.08 574.035 485.296C573.703 485.512 573.45 485.83 573.313 486.201C573.176 486.573 573.162 486.978 573.274 487.358C573.385 487.738 573.616 488.072 573.933 488.31C574.045 488.392 574.166 488.461 574.294 488.514C575.121 488.874 575.787 489.526 576.164 490.345C576.542 491.163 576.605 492.093 576.342 492.955C576.299 493.087 576.272 493.224 576.262 493.363C576.238 493.758 576.342 494.15 576.558 494.482C576.775 494.813 577.092 495.066 577.463 495.203C577.835 495.34 578.24 495.354 578.62 495.242C579 495.131 579.334 494.9 579.572 494.584C579.654 494.472 579.723 494.35 579.776 494.222C580.136 493.395 580.788 492.73 581.607 492.352C582.426 491.975 583.355 491.911 584.217 492.175C584.349 492.217 584.486 492.244 584.625 492.254C585.02 492.278 585.412 492.175 585.744 491.958C586.075 491.742 586.328 491.424 586.465 491.053C586.603 490.682 586.616 490.276 586.505 489.896C586.393 489.516 586.162 489.182 585.846 488.944C585.734 488.862 585.612 488.794 585.484 488.74Z" fill="#4D8AF0"/>
<path opacity="0.5" d="M91.285 66.803C90.4583 66.443 89.7928 65.7915 89.4152 64.9726C89.0377 64.1537 88.9744 63.2246 89.2375 62.3621C89.2801 62.2298 89.3069 62.093 89.3174 61.9545C89.3415 61.5593 89.2376 61.1669 89.0212 60.8354C88.8048 60.5039 88.4874 60.2509 88.116 60.1139C87.7445 59.9769 87.3388 59.9631 86.959 60.0747C86.5791 60.1863 86.2453 60.4172 86.007 60.7333C85.925 60.8455 85.8566 60.9669 85.8031 61.0951C85.443 61.9219 84.7915 62.5873 83.9726 62.9649C83.1537 63.3424 82.2246 63.4057 81.3621 63.1426C81.2298 63.1 81.093 63.0732 80.9545 63.0627C80.5594 63.0387 80.167 63.1425 79.8354 63.3589C79.5039 63.5753 79.2509 63.8927 79.1139 64.2642C78.9769 64.6356 78.9631 65.0413 79.0747 65.4212C79.1863 65.801 79.4172 66.1348 79.7333 66.3731C79.8455 66.4551 79.967 66.5236 80.0951 66.5771C80.9219 66.9371 81.5874 67.5886 81.9649 68.4075C82.3425 69.2264 82.4057 70.1555 82.1426 71.018C82.1001 71.1503 82.0732 71.2871 82.0627 71.4256C82.0387 71.8208 82.1425 72.2132 82.3589 72.5447C82.5753 72.8762 82.8928 73.1292 83.2642 73.2662C83.6356 73.4033 84.0413 73.417 84.4212 73.3054C84.801 73.1939 85.1348 72.9629 85.3732 72.6468C85.4551 72.5346 85.5236 72.4132 85.5771 72.285C85.9371 71.4582 86.5886 70.7928 87.4075 70.4152C88.2264 70.0377 89.1556 69.9744 90.0181 70.2375C90.1503 70.2801 90.2871 70.3069 90.4256 70.3174C90.8208 70.3415 91.2132 70.2376 91.5447 70.0212C91.8762 69.8048 92.1292 69.4874 92.2662 69.1159C92.4033 68.7445 92.417 68.3388 92.3054 67.959C92.1939 67.5791 91.9629 67.2453 91.6468 67.007C91.5346 66.925 91.4132 66.8566 91.285 66.803Z" fill="#4D8AF0"/>
<path opacity="0.5" d="M956.484 218.74C955.657 218.38 954.992 217.729 954.614 216.91C954.237 216.091 954.174 215.162 954.437 214.299C954.479 214.167 954.506 214.03 954.517 213.892C954.541 213.496 954.437 213.104 954.22 212.772C954.004 212.441 953.687 212.188 953.315 212.051C952.944 211.914 952.538 211.9 952.158 212.012C951.778 212.123 951.444 212.354 951.206 212.67C951.124 212.783 951.056 212.904 951.002 213.032C950.642 213.859 949.991 214.524 949.172 214.902C948.353 215.279 947.424 215.343 946.561 215.08C946.429 215.037 946.292 215.01 946.154 215C945.759 214.976 945.366 215.08 945.035 215.296C944.703 215.512 944.45 215.83 944.313 216.201C944.176 216.573 944.162 216.978 944.274 217.358C944.385 217.738 944.616 218.072 944.933 218.31C945.045 218.392 945.166 218.461 945.294 218.514C946.121 218.874 946.787 219.526 947.164 220.345C947.542 221.163 947.605 222.093 947.342 222.955C947.299 223.087 947.272 223.224 947.262 223.363C947.238 223.758 947.342 224.15 947.558 224.482C947.775 224.813 948.092 225.066 948.463 225.203C948.835 225.34 949.24 225.354 949.62 225.242C950 225.131 950.334 224.9 950.572 224.584C950.654 224.472 950.723 224.35 950.776 224.222C951.136 223.395 951.788 222.73 952.607 222.352C953.426 221.975 954.355 221.911 955.217 222.175C955.349 222.217 955.486 222.244 955.625 222.254C956.02 222.278 956.412 222.175 956.744 221.958C957.075 221.742 957.328 221.424 957.465 221.053C957.602 220.682 957.616 220.276 957.505 219.896C957.393 219.516 957.162 219.182 956.846 218.944C956.734 218.862 956.612 218.794 956.484 218.74Z" fill="#4D8AF0"/>
<path opacity="0.5" d="M186.594 316.784C189.907 316.784 192.594 314.097 192.594 310.784C192.594 307.47 189.907 304.784 186.594 304.784C183.28 304.784 180.594 307.47 180.594 310.784C180.594 314.097 183.28 316.784 186.594 316.784Z" fill="#F55F44"/>
<path opacity="0.5" d="M542.791 319.435C546.105 319.435 548.791 316.748 548.791 313.435C548.791 310.121 546.105 307.435 542.791 307.435C539.477 307.435 536.791 310.121 536.791 313.435C536.791 316.748 539.477 319.435 542.791 319.435Z" fill="#47E6B1"/>
<path opacity="0.5" d="M888.791 469.435C892.105 469.435 894.791 466.749 894.791 463.435C894.791 460.121 892.105 457.435 888.791 457.435C885.477 457.435 882.791 460.121 882.791 463.435C882.791 466.749 885.477 469.435 888.791 469.435Z" fill="#F55F44"/>
<path d="M604.594 75.4976C607.907 75.4976 610.594 72.8113 610.594 69.4976C610.594 66.1839 607.907 63.4976 604.594 63.4976C601.28 63.4976 598.594 66.1839 598.594 69.4976C598.594 72.8113 601.28 75.4976 604.594 75.4976Z" fill="white"/>
<path d="M610.594 97.4976C613.907 97.4976 616.594 94.8113 616.594 91.4976C616.594 88.1839 613.907 85.4976 610.594 85.4976C607.28 85.4976 604.594 88.1839 604.594 91.4976C604.594 94.8113 607.28 97.4976 610.594 97.4976Z" fill="white"/>
<path d="M649.594 258.498C652.907 258.498 655.594 255.811 655.594 252.498C655.594 249.184 652.907 246.498 649.594 246.498C646.28 246.498 643.594 249.184 643.594 252.498C643.594 255.811 646.28 258.498 649.594 258.498Z" fill="white"/>
<path d="M655.594 280.498C658.907 280.498 661.594 277.811 661.594 274.498C661.594 271.184 658.907 268.498 655.594 268.498C652.28 268.498 649.594 271.184 649.594 274.498C649.594 277.811 652.28 280.498 655.594 280.498Z" fill="white"/>
<path d="M661.342 408.566C661.342 408.566 667.478 376.392 687.233 376.228L701.663 405.918L692.04 412.551C692.04 412.551 671.129 413.215 661.342 408.566Z" fill="#D0CDE1"/>
<path opacity="0.502" d="M701.661 405.91L692.038 412.551C692.038 412.551 677.366 413.017 666.803 410.429C664.925 409.991 663.095 409.367 661.34 408.566C661.353 408.389 661.391 408.215 661.452 408.049C661.45 408.008 661.45 407.968 661.452 407.928C662.359 403.889 663.609 399.936 665.188 396.11C665.793 394.669 666.483 393.178 667.225 391.693C670.117 386.13 674.182 380.678 679.74 377.978C681.797 376.968 684.036 376.381 686.325 376.253H687.205L687.516 376.909L692.402 386.941L701.661 405.91Z" fill="black"/>
<path d="M865.619 539.6C865.619 539.6 886.332 537.61 888.187 539.1C890.042 540.589 901.797 548.226 908.761 543.412C915.726 538.599 911.082 521.848 911.082 521.183C911.082 520.519 910.426 496.807 910.426 496.807L897.973 480.056L882.378 450.729L850.516 447.58L851.379 494.16L851.215 518.045L865.619 539.6Z" fill="#D0CDE1"/>
<path opacity="0.503" d="M865.619 539.6C865.619 539.6 886.332 537.61 888.187 539.1C890.042 540.589 901.797 548.226 908.761 543.412C915.726 538.599 911.082 521.848 911.082 521.183C911.082 520.519 910.426 496.807 910.426 496.807L897.973 480.056L882.378 450.729L850.516 447.58L851.379 494.16L851.215 518.045L865.619 539.6Z" fill="black"/>
<path d="M683.073 375.4C683.073 375.4 681.425 395.637 668.807 395.964C668.807 395.964 665.235 393.808 660.428 390.219C649.347 381.93 631.758 365.998 636.617 351.179C643.591 329.951 677.438 369.094 677.438 369.094L680.028 372.01L683.073 375.4Z" fill="#FBBEBE"/>
<path opacity="0.1" d="M683.072 375.4C683.072 375.4 681.423 395.636 668.806 395.964C668.806 395.964 665.233 393.807 660.426 390.218L659.348 388.838C661.486 389.954 663.843 390.587 666.252 390.692C669.419 390.761 672.984 389.588 675.271 385.017C676.583 382.412 677.735 379.73 678.723 376.986C679.328 375.379 679.756 373.711 680 372.012L683.072 375.4Z" fill="black"/>
<path d="M677.601 412.051L674.762 408.403L665.182 396.111L660.314 389.831C662.451 390.953 664.808 391.589 667.219 391.695C670.386 391.763 673.951 390.59 676.247 386.01C677.559 383.405 678.712 380.724 679.699 377.979C681.278 373.502 681.244 371.196 680.694 370.423C680.145 369.651 684.215 373.433 686.175 375.288L686.243 375.357C686.804 375.875 687.166 376.22 687.166 376.22L687.503 376.893L692.31 386.502L692.362 386.907C692.8 389.961 694.422 409.308 677.601 412.051Z" fill="#E6E6E6"/>
<path d="M777.005 838.975C777.005 838.975 763.069 848.101 756.101 846.738C749.133 845.375 741.99 849.067 741.99 849.067C737.189 854.31 731.134 858.249 724.393 860.514C713.113 864.326 697.355 862.833 688.396 859.841C684.15 858.434 683.813 856.606 685.85 854.363C688.12 851.853 693.324 848.825 699.348 845.245C710.792 838.448 723.073 825.009 723.073 825.009C723.073 825.009 723.236 821.697 725.23 820.204C726.451 819.161 727.572 818.006 728.578 816.754C730.356 814.649 732.031 812.441 732.031 812.441L773.024 813.77C773.024 813.77 773.723 816.729 774.266 819.748C774.723 822.223 775.081 824.742 774.844 825.717C774.344 827.865 776.009 829.858 776.009 829.858L776.743 836.629L777.005 838.975Z" fill="#2F2E41"/>
<path d="M862.814 850.412C862.322 852.395 861.728 855.958 861.457 857.631C861.366 858.2 861.318 858.545 861.318 858.545C861.318 858.545 857.995 865.843 839.579 868.5C821.163 871.157 821.162 862.359 821.162 862.359C821.162 862.359 821.231 861.41 821.352 859.986C821.672 856.104 822.336 848.68 822.819 847.099C823.483 844.943 822.327 835.489 822.327 835.489L822.129 825.604L821.99 818.703L852.53 815.546C852.724 817.829 853.052 820.099 853.513 822.343C853.704 823.577 854.16 824.754 854.851 825.794C856.508 827.631 857.508 835.748 857.508 835.748C857.508 835.748 863.461 847.755 862.814 850.412Z" fill="#2F2E41"/>
<path opacity="0.1" d="M773.057 813.761C773.057 813.761 773.755 816.72 774.299 819.739C769.872 820.553 750.514 823.905 745.673 821.558C740.201 818.902 728.412 817.41 728.412 817.41L728.61 816.737C730.388 814.632 732.063 812.424 732.063 812.424L773.057 813.761Z" fill="black"/>
<path opacity="0.1" d="M853.494 822.378C845.727 821.066 828.794 824.241 822.115 825.604L821.977 818.703L852.511 815.546C852.703 817.841 853.032 820.122 853.494 822.378Z" fill="black"/>
<path d="M870.763 570.946L870.098 594.331C870.098 594.331 870.962 629.99 868.441 635.631C865.921 641.272 865.948 663.992 865.948 663.992C865.948 663.992 867.613 674.774 865.784 677.086C863.954 679.398 865.283 688.041 866.647 692.518C868.011 696.995 866.803 708.114 866.803 708.114L866.475 770.805C866.475 770.805 864.654 787.057 862.324 789.385C861.655 790.074 861.18 790.927 860.948 791.859C860.716 792.791 860.735 793.768 861.004 794.69C861.004 794.69 859.013 803.971 859.511 805.634C860.008 807.296 861.004 811.102 857.19 812.923C853.375 814.743 854.359 820.556 854.359 820.556C845.236 818.4 819.355 824.214 819.355 824.214C819.355 824.214 814.177 813.596 812.045 806.462C809.913 799.329 815.204 794.852 818.681 794.386C822.159 793.92 816.196 787.743 816.196 787.743C816.196 787.743 816.86 786.88 815.2 780.946C813.54 775.012 815.528 759.71 816.063 755.734C816.599 751.758 819.05 732.513 819.05 732.513C819.05 732.513 817.729 708.137 818.722 707.137C819.715 706.137 823.037 696.519 821.38 693.336C819.723 690.153 817.065 669.451 817.065 668.321C817.065 667.191 814.908 640.287 814.908 640.287C814.908 640.287 812.923 621.543 813.415 617.567C813.906 613.591 812.085 598.832 812.085 598.832C812.085 586.549 804.957 573.283 804.957 573.283L804.776 573.758L789.354 614.299C789.354 614.299 786.869 626.565 784.703 633.534C783.344 638.265 782.264 643.072 781.467 647.93L781.321 648.793C781.26 649.164 781.208 649.483 781.174 649.724L781.071 650.397C781.071 650.397 782.227 659.187 780.407 662.008C778.586 664.829 776.515 673.282 776.515 675.636C776.515 677.991 776.671 686.928 776.671 686.928C776.671 686.928 777.344 704.671 775.515 706.664C773.685 708.656 774.651 710.312 774.651 710.312C774.651 710.312 777.646 723.743 776.317 727.226C774.989 730.709 775.99 738.827 775.99 738.827C775.99 738.827 773.357 764.481 773.064 765.826C772.771 767.17 770.907 777.436 772.891 778.264C774.876 779.091 778.699 784.068 778.699 784.068C778.699 784.068 779.562 805.797 776.55 807.453C773.537 809.109 775.212 817.572 775.212 817.572C775.212 817.572 751.16 822.22 745.68 819.561C740.2 816.902 728.419 815.413 728.419 815.413L730.068 809.961C729.978 810.151 728.877 811.92 728.092 805.131C727.229 797.997 734.236 801.482 734.236 801.482C734.236 801.482 739.707 802.811 730.905 794.185C722.103 785.559 726.426 776.77 726.924 776.77C727.421 776.77 728.581 764.003 728.581 764.003C728.581 764.003 730.074 756.369 728.908 750.4C727.743 744.431 726.759 725.851 726.759 725.851C726.759 725.851 727.622 711.757 726.095 706.616C724.567 701.475 727.09 692.185 727.588 690.02C728.085 687.855 726.095 668.132 726.095 668.132C726.095 668.132 727.761 658.85 726.759 652.053C725.757 645.256 727.76 620.207 727.76 620.207L730.746 591.345C730.746 591.345 732.895 582.391 732.567 578.743C732.238 575.096 735.053 562.354 735.053 562.354C735.053 562.354 734.725 557.706 736.382 554.395C738.039 551.085 738.712 540.136 738.712 540.136L754.643 503.64L762.41 471.466L867.785 470.471C867.785 470.471 868.174 473.257 868.803 478.329C869.433 483.401 870.348 490.914 871.392 500.178C872.307 508.597 873.308 518.499 874.288 529.506C877.399 564.64 870.763 570.946 870.763 570.946Z" fill="#2F2E41"/>
<path d="M860.975 280.525L836.404 306.739C836.404 306.739 804.887 294.128 808.201 289.816C809.486 288.143 809.279 282.915 808.537 277.063C807.373 267.885 804.887 257.301 804.887 257.301C804.887 257.301 859.973 248.347 855.322 257.629C853.596 261.028 853.924 264.987 854.977 268.644C856.323 272.901 858.348 276.911 860.975 280.522V280.525Z" fill="#FBBEBE"/>
<path opacity="0.1" d="M855.324 257.633C853.598 261.032 852.821 261.359 853.882 265.017C846.676 272.78 837.485 281.19 826.127 281.19C820.024 281.2 814.002 279.788 808.539 277.067C807.375 267.889 804.889 257.305 804.889 257.305C804.889 257.305 859.975 248.351 855.324 257.633Z" fill="black"/>
<path d="M865.619 240.718C865.619 251.189 861.458 261.231 854.05 268.635C846.642 276.039 836.595 280.198 826.119 280.198C815.643 280.198 805.596 276.039 798.188 268.635C790.781 261.231 786.619 251.189 786.619 240.718C786.619 240.529 786.619 240.339 786.619 240.15C786.695 229.681 790.928 219.671 798.387 212.322C805.847 204.973 815.922 200.887 826.396 200.962C836.87 201.038 846.884 205.269 854.237 212.725C861.59 220.18 865.678 230.25 865.603 240.718H865.619Z" fill="#FBBEBE"/>
<path opacity="0.1" d="M871.341 501.138C866.112 501.181 848.687 501.328 829.217 501.638H828.983L822.549 501.746H822.35C799.265 502.117 776.515 497.606 767.384 498.469C747.966 500.288 774.352 480.553 774.352 480.553C788.821 484.063 803.704 485.567 818.582 485.021L824.166 484.736C841.812 483.736 859.548 482.08 868.801 479.302C869.443 484.421 870.34 491.909 871.341 501.138Z" fill="black"/>
<path d="M871.341 500.145C866.111 500.145 848.687 500.335 829.217 500.637H828.983L822.545 500.75H822.346C799.261 501.12 776.511 496.609 767.38 497.463C747.962 499.283 774.348 479.554 774.348 479.554C788.818 483.06 803.7 484.563 818.578 484.022L824.162 483.729C841.808 482.735 859.544 481.073 868.797 478.295C869.442 483.42 870.34 490.881 871.341 500.145Z" fill="#7C5C5C"/>
<path opacity="0.1" d="M815.504 291.472L784.97 305.739L761.41 487.846C761.41 487.846 775.346 481.549 783.309 485.526C791.273 489.503 815.828 485.862 815.828 485.862C815.828 485.862 833.753 484.862 836.411 486.857C839.068 488.852 870.255 478.568 870.255 478.568C870.255 478.568 875.899 465.957 871.584 463.973C867.269 461.99 872.913 442.409 872.913 442.409L870.256 311.047L864.948 294.134L850.681 285.502L836.061 297.113L829.157 298.108L815.504 291.472Z" fill="black"/>
<path d="M815.504 289.479L784.97 303.746L761.41 485.87C761.41 485.87 775.346 479.565 783.309 483.55C791.273 487.535 815.828 483.877 815.828 483.877C815.828 483.877 833.753 482.882 836.411 484.872C839.068 486.862 870.255 476.583 870.255 476.583C870.255 476.583 875.899 463.981 871.584 461.988C867.269 459.996 872.913 440.424 872.913 440.424L870.256 309.045L864.948 292.131L850.681 283.501L836.061 295.12L829.157 296.103L815.504 289.479Z" fill="#E6E6E6"/>
<path opacity="0.1" d="M815.003 297.941C815.003 297.941 823.797 308.386 823.633 310.543C823.469 312.699 823.141 317.84 823.141 317.84L816.496 331.279C816.496 331.279 812.845 348.031 812.845 351.516C812.845 355 807.037 385.156 807.037 385.156L800.069 431.597L791.275 492.468L800.234 507.891L810.858 498.936L824.959 390.459L827.946 369.067C827.946 369.067 831.096 330.587 831.096 326.61C831.096 322.633 829.275 312.18 829.275 312.18C829.275 312.18 831.432 302.225 840.391 299.905C849.35 297.585 839.727 299.405 839.727 299.405L834.549 295.256L830.07 297.085C830.07 297.085 817.66 293.3 815.003 297.941Z" fill="black"/>
<path d="M814.01 296.966C814.01 296.966 822.804 307.411 822.641 309.567C822.477 311.724 822.14 316.865 822.14 316.865L815.504 330.304C815.504 330.304 811.897 347.037 811.897 350.514C811.897 353.992 806.089 384.155 806.089 384.155L799.072 430.665L790.32 491.494L799.287 506.926L809.859 497.947L823.976 389.495L826.963 368.102C826.963 368.102 830.113 329.623 830.113 325.638C830.113 321.653 828.292 311.207 828.292 311.207C828.292 311.207 830.449 301.258 839.408 298.933C848.367 296.607 838.744 298.441 838.744 298.441L833.566 294.292L829.156 296.101C829.156 296.101 816.668 292.302 814.01 296.966Z" fill="#2F2E41"/>
<path opacity="0.1" d="M808.202 279.533C808.202 279.533 806.873 280.528 806.545 287.159C806.218 293.789 801.568 308.723 801.568 308.723C801.568 308.723 818.829 296.776 827.459 298.104L808.202 279.533Z" fill="black"/>
<path d="M808.202 277.541C808.202 277.541 806.873 278.535 806.545 285.174C806.218 291.813 801.568 306.738 801.568 306.738C801.568 306.738 818.829 294.799 827.459 296.129L808.202 277.541Z" fill="#E6E6E6"/>
<path opacity="0.1" d="M855.333 274.22L828.113 298.105C828.113 298.105 851.018 311.708 854.004 315.029C856.99 318.349 859.976 282.514 859.976 282.514L855.333 274.22Z" fill="black"/>
<path d="M856.324 272.236L829.156 296.104C829.156 296.104 852.051 309.698 855.047 313.017C858.043 316.336 861.028 280.506 861.028 280.506L856.324 272.236Z" fill="#E6E6E6"/>
<path opacity="0.1" d="M809.195 279.534C809.195 279.534 806.208 278.042 803.387 282.355C800.565 286.669 795.257 288.652 795.257 288.652C795.257 288.652 765.051 293.466 763.895 297.442L749.793 298.305C749.793 298.305 744.816 298.96 744.313 309.415C743.81 319.87 741.129 320.836 741.129 320.836C741.129 320.836 735.321 331.117 735.812 336.422C736.304 341.727 731.333 344.381 731.333 344.381L752.046 398.287C752.046 398.287 752.71 420.516 748.887 428.641C745.065 436.766 737.938 472.761 737.938 472.761C737.938 472.761 740.932 472.098 740.76 474.081C740.588 476.065 737.11 497.802 737.11 497.802C737.11 497.802 736.114 506.428 734.46 509.413C732.806 512.398 732.63 527.993 732.63 527.993L729.973 539.267C729.973 539.267 736.281 553.371 745.904 551.344C755.527 549.317 773.064 511.752 773.064 511.752L784.18 471.116L792.81 430.981L795.296 403.784L799.283 343.576L805.091 303.768C805.091 303.768 811.525 282.359 809.195 279.534Z" fill="black"/>
<path d="M808.202 277.542C808.202 277.542 805.215 276.049 802.394 280.363C799.572 284.676 794.264 286.668 794.264 286.668C794.264 286.668 764.058 291.472 762.902 295.457L748.791 296.32C748.791 296.32 743.814 296.984 743.32 307.43C742.826 317.877 740.162 318.876 740.162 318.876C740.162 318.876 734.354 329.158 734.855 334.463C735.355 339.768 730.375 342.422 730.375 342.422L751.088 396.328C751.088 396.328 751.752 418.557 747.938 426.682C744.124 434.807 736.988 470.802 736.988 470.802C736.988 470.802 739.975 470.138 739.811 472.131C739.647 474.123 736.16 495.843 736.16 495.843C736.16 495.843 735.165 504.469 733.503 507.454C731.84 510.438 731.682 526.034 731.682 526.034L729.045 537.272C729.045 537.272 735.353 551.375 744.976 549.348C754.599 547.321 772.024 509.713 772.024 509.713L783.148 469.077L791.778 428.933L794.272 401.736L798.254 341.528L804.062 301.72C804.062 301.72 810.523 280.362 808.202 277.542Z" fill="#2F2E41"/>
<path opacity="0.1" d="M701.662 405.91L692.039 412.555C692.039 412.555 677.368 413.021 666.804 410.433L661.454 408.053L660.375 407.587L661.48 407.931C667.029 409.579 671.37 409.544 674.762 408.406C688.38 403.826 686.844 381.347 686.352 376.258C686.3 375.749 686.261 375.395 686.24 375.292C686.237 375.272 686.237 375.252 686.24 375.231L686.317 375.361C686.503 375.666 686.715 375.955 686.951 376.224C687.141 376.439 687.339 376.663 687.555 376.87L692.362 386.479L692.414 386.885L701.662 405.91Z" fill="black"/>
<path d="M735.018 341.061L730.375 342.39L729.711 351.878C729.711 351.878 724.231 351.016 722.737 357.52C721.244 364.023 718.595 367.008 718.595 367.008C718.595 367.008 709.464 374.642 708.964 381.102L703.328 384.553C703.328 384.553 690.206 381.499 687.233 376.232C687.233 376.232 693.205 419.025 661.342 408.57C661.342 408.57 697.019 424.166 698.676 426.322C700.333 428.478 711.294 434.775 721.244 429.47C731.195 424.166 733.361 416.006 733.361 416.006C733.361 416.006 742.984 402.567 743.321 400.574C743.658 398.58 751.088 396.261 751.088 396.261L765.363 361.755L735.018 341.061Z" fill="#2F2E41"/>
<path opacity="0.1" d="M851.517 294.129L856.324 272.241C856.324 272.241 858.482 279.374 860.64 281.03L867.777 286.499C867.777 286.499 874.914 289.82 877.4 289.82C879.886 289.82 893.331 293.27 894.988 295.124C896.645 296.979 903.291 295.625 903.291 295.625C903.291 295.625 908.762 297.444 913.578 298.609C918.394 299.774 920.715 307.735 919.715 310.884C919.313 312.451 919.317 314.095 919.724 315.661C920.132 317.227 920.93 318.664 922.045 319.838C924.029 321.828 925.031 328.3 925.031 328.3C927.471 329.094 929.497 330.822 930.667 333.105C932.333 336.753 931.832 344.715 931.832 344.715L907.107 379.546C907.107 379.546 907.435 392.985 906.443 395.935C905.451 398.884 909.895 449.673 909.895 449.673L915.073 536.914C915.073 536.914 908.273 542.719 906.779 543.384C905.286 544.048 903.785 512.529 903.785 511.374C903.785 510.219 865.459 453.987 865.459 453.987C865.459 453.987 860.281 445.689 860.281 443.868C860.281 442.048 855.465 425.288 855.465 425.288L848.16 392.946L851.517 294.129Z" fill="black"/>
<path d="M933.884 342.812C933.884 343.951 933.823 344.711 933.823 344.711L909.119 379.516C909.119 379.516 909.464 392.946 908.463 395.905C907.884 397.629 909.153 415.485 910.327 430.14C911.19 440.722 911.949 449.643 911.949 449.643L914.133 486.647L917.085 536.884C917.085 536.884 910.284 542.689 908.791 543.353C907.298 544.018 905.805 512.499 905.805 511.336C905.805 510.172 867.469 453.957 867.469 453.957C867.469 453.957 862.292 445.659 862.292 443.838C862.292 442.018 857.485 425.258 857.485 425.258L850.184 392.912L853.497 294.07L856.32 272.182C856.32 272.182 860.471 279.315 862.628 280.963C864.786 282.611 869.757 286.44 869.757 286.44C869.757 286.44 876.894 289.762 879.388 289.762C881.882 289.762 895.32 293.212 896.976 295.066C898.633 296.92 905.279 295.566 905.279 295.566C905.279 295.566 910.75 297.386 915.557 298.551C920.364 299.716 922.694 307.677 921.702 310.817C921.298 312.385 921.299 314.03 921.705 315.597C922.111 317.165 922.909 318.603 924.023 319.779C926.014 321.769 927.009 328.232 927.009 328.232C929.454 329.032 931.482 330.765 932.653 333.054C933.814 335.627 933.926 340.227 933.884 342.812Z" fill="#2F2E41"/>
<path opacity="0.1" d="M731.039 784.736C731.902 784.736 766.717 786.064 766.052 791.706C765.386 797.347 731.039 784.736 731.039 784.736Z" fill="black"/>
<path opacity="0.1" d="M738.842 794.189C738.842 794.189 762.239 798.002 756.102 801.487C749.966 804.972 738.842 794.189 738.842 794.189Z" fill="black"/>
<path opacity="0.1" d="M825.791 781.087C825.791 781.087 864.627 784.409 858.821 788.713C853.015 793.017 839.239 793.687 838.574 793.888C837.909 794.089 825.791 781.087 825.791 781.087Z" fill="black"/>
<path opacity="0.1" d="M821.146 798.174C821.146 798.174 842.722 801.823 843.378 805.937C844.034 810.052 821.146 798.174 821.146 798.174Z" fill="black"/>
<path opacity="0.1" d="M833.092 698.323C833.092 698.323 852.837 702.964 854.003 706.086L833.092 698.323Z" fill="black"/>
<path opacity="0.1" d="M756.921 712.59C756.921 712.59 746.634 715.575 756.593 721.544C766.553 727.513 756.921 712.59 756.921 712.59Z" fill="black"/>
<path opacity="0.1" d="M802.559 553.195C803.723 553.195 821.813 547.225 828.113 549.883C834.413 552.54 842.223 552.531 842.223 552.531L802.559 553.195Z" fill="black"/>
<path opacity="0.1" d="M804.889 572.128L804.708 573.767L789.286 614.308C789.286 614.308 786.8 626.573 784.634 633.543C783.275 638.274 782.195 643.081 781.398 647.939L795.097 563.054L804.889 572.128Z" fill="black"/>
<path d="M828.985 500.638L822.546 500.75H822.348L818.576 484.033C820.431 483.942 822.286 483.843 824.16 483.73L828.985 500.638Z" fill="#2F2E41"/>
<path d="M907.269 480.397L903.136 483.796L889.33 495.14C889.33 495.14 851.987 515.048 841.7 496.141C832.63 479.484 874.97 467.589 885.162 464.993C886.551 464.639 887.334 464.466 887.334 464.466L907.269 480.397Z" fill="#FBBEBE"/>
<path opacity="0.1" d="M747.799 317.349C747.799 317.349 755.1 320.661 756.758 325.308C758.415 329.955 747.799 317.349 747.799 317.349Z" fill="black"/>
<path opacity="0.1" d="M725.232 367.102C725.232 367.102 714.608 380.04 718.924 385.018C723.24 389.995 725.232 367.102 725.232 367.102Z" fill="black"/>
<path opacity="0.1" d="M915.072 324.646C915.072 324.646 905.113 325.641 904.785 334.264L915.072 324.646Z" fill="black"/>
<path opacity="0.1" d="M822.805 460.649C823.8 459.654 846.702 425.818 852.009 428.803L822.805 460.649Z" fill="black"/>
<path opacity="0.1" d="M865.619 240.717C865.627 247.218 864.023 253.619 860.95 259.349L860.657 259.297C858.154 258.771 856.851 255.847 854.935 254.035C853.761 252.916 852.265 252.193 850.658 251.968C849.051 251.742 847.414 252.025 845.977 252.776C844.524 253.646 843.342 254.904 842.565 256.408C841.788 257.912 841.445 259.602 841.575 261.29C840.315 255.976 840.712 250.327 839.477 245.004C838.243 239.682 834.524 234.3 829.441 234.205C827.249 234.205 824.685 235.019 823.106 233.342C822.148 232.347 821.95 230.754 821.233 229.59C817.6 223.711 806.562 226.683 802.022 229.693C797.655 232.587 792.249 237.525 786.639 240.113C786.714 229.644 790.947 219.635 798.407 212.286C802.1 208.647 806.475 205.771 811.281 203.822C816.086 201.872 821.229 200.888 826.415 200.926C831.601 200.963 836.729 202.021 841.506 204.039C846.284 206.057 850.616 208.996 854.257 212.688C857.898 216.38 860.775 220.752 862.725 225.555C864.675 230.358 865.66 235.498 865.622 240.682L865.619 240.717Z" fill="black"/>
<path d="M821.234 228.625C821.958 229.824 822.149 231.393 823.107 232.377C824.686 234.016 827.25 233.18 829.441 233.24C834.524 233.331 838.245 238.718 839.478 244.039C840.711 249.361 840.341 255.002 841.575 260.32C841.446 258.633 841.79 256.943 842.569 255.441C843.348 253.939 844.531 252.684 845.984 251.818C847.42 251.067 849.055 250.784 850.66 251.008C852.265 251.233 853.759 251.953 854.934 253.069C856.85 254.888 858.153 257.804 860.656 258.331C863.159 258.857 865.575 256.459 866.473 253.819C867.371 251.18 867.336 248.29 867.905 245.556C869.036 240.381 872.41 236.15 874.283 231.229C876.506 225.241 876.444 218.646 874.11 212.701C872.868 209.587 871.012 206.784 869.796 203.67C867.88 198.943 857.256 192.577 854.934 188.074C851.025 180.535 853.545 185.236 845.984 188.074C842.377 189.431 837.647 184.606 833.989 185.806C829.078 187.376 823.84 186.194 818.756 185.486C813.672 184.779 808.072 184.71 803.99 188.074C799.295 191.913 798.009 199.132 793.633 203.35C791.778 205.119 789.471 206.245 787.514 207.887C785.558 209.53 783.872 211.957 784.062 214.624C784.355 218.074 787.722 221.179 786.478 224.362C786.029 225.282 785.405 226.105 784.64 226.786C780.939 230.656 778.188 235.334 776.605 240.449C785.486 243.217 795.1 233.436 802.048 228.813C806.546 225.726 817.6 222.785 821.234 228.625Z" fill="#2F2E41"/>
<path opacity="0.1" d="M907.269 480.398L903.135 483.797C899.493 477.758 884.537 465.622 884.537 465.622L885.184 465.001C886.573 464.647 887.356 464.475 887.356 464.475L907.269 480.398Z" fill="black"/>
<path d="M911.255 474.252C911.255 474.252 909.771 477.944 908.234 481.153C906.698 484.362 905.033 487.243 904.946 484.888C904.782 480.239 885.537 464.644 885.537 464.644L888.126 462.111L891.155 459.178L911.255 474.252Z" fill="#E6E6E6"/>
<path opacity="0.1" d="M911.921 449.702L914.104 486.706C908.926 478.693 894.798 458.155 885.689 458.819L907.77 433.451C908.687 432.425 909.532 431.337 910.298 430.195C911.143 440.783 911.921 449.702 911.921 449.702Z" fill="black"/>
<path opacity="0.1" d="M911.255 474.252C911.255 474.252 909.77 477.944 908.234 481.153C902.451 473.226 894.494 463.859 888.145 462.107L891.173 459.174L911.255 474.252Z" fill="black"/>
<path d="M927.85 340.095L933.823 344.736C933.823 344.736 943.777 344.908 944.772 353.198C945.768 361.487 954.896 365.274 954.896 365.274C954.896 365.274 961.696 372.071 961.696 375.223C961.696 378.375 966.874 384.022 966.874 384.513C966.874 385.004 971.851 395.131 971.189 396.951C970.526 398.771 976.496 406.741 974.641 409.726C973.139 412.402 971.808 415.171 970.654 418.015C970.654 418.015 962.887 432.946 958.874 435.767C954.86 438.588 936.642 462.3 936.642 462.3C936.642 462.3 917.061 484.856 917.061 491.826C917.061 491.826 897.967 459.98 886.691 460.773L908.759 435.396C908.759 435.396 912.582 431.255 912.746 428.763C912.91 426.27 923.361 414.834 928.341 414.332C928.341 414.332 929.204 407.535 927.011 407.368C924.819 407.2 923.03 401.89 923.03 401.89C923.03 401.89 908.428 384.639 908.263 373.693C908.098 362.747 927.85 340.095 927.85 340.095Z" fill="#2F2E41"/>
<path opacity="0.1" d="M936.645 355.828C936.645 355.828 922.698 366.11 925.696 369.422C928.693 372.734 936.645 355.828 936.645 355.828Z" fill="black"/>
<path opacity="0.1" d="M777.005 838.974C777.005 838.974 763.069 848.1 756.101 846.737C749.133 845.374 741.99 849.066 741.99 849.066C737.189 854.31 731.134 858.248 724.393 860.513C713.113 864.326 697.355 862.833 688.396 859.84C684.15 858.434 683.813 856.606 685.85 854.363C695.594 856.304 717.368 860.16 723.236 857.356C730.866 853.707 741.817 845.745 741.817 845.745C741.817 845.745 756.101 843.755 758.085 843.755C759.5 843.755 770.522 839.21 776.744 836.596L777.005 838.974Z" fill="black"/>
<path opacity="0.1" d="M754.687 353.835C754.687 353.835 754.687 391.651 751.451 395.385C748.215 399.12 754.687 353.835 754.687 353.835Z" fill="black"/>
<path opacity="0.1" d="M904.281 366.024L909.088 379.537C909.088 379.537 911.004 366.274 904.281 366.024Z" fill="black"/>
<g opacity="0.1">
<path opacity="0.1" d="M786.946 221.06C788.163 217.946 784.978 214.902 784.564 211.571C784.14 212.512 783.956 213.544 784.029 214.573C784.245 217.083 786.101 219.438 786.618 221.758C786.75 221.536 786.86 221.302 786.946 221.059V221.06Z" fill="black"/>
<path opacity="0.1" d="M842.025 256.779C840.834 251.543 841.161 246.005 839.971 240.778C838.78 235.551 835.025 230.065 829.942 229.979C827.75 229.979 825.187 230.781 823.599 229.116C822.649 228.133 822.451 226.528 821.734 225.363C818.101 219.484 807.063 222.469 802.515 225.475C795.722 229.987 786.403 239.415 777.703 237.275C777.28 238.284 776.888 239.302 776.572 240.35C785.452 243.119 795.067 233.337 802.014 228.714C806.545 225.704 817.601 222.676 821.234 228.602C821.958 229.801 822.149 231.371 823.107 232.355C824.686 233.994 827.25 233.157 829.442 233.217C834.525 233.308 838.245 238.695 839.478 244.017C840.712 249.339 840.342 254.98 841.575 260.297C841.491 259.108 841.644 257.915 842.027 256.786L842.025 256.779Z" fill="black"/>
<path opacity="0.1" d="M866.973 250.551C866.11 253.19 863.701 255.606 861.148 255.062C858.594 254.519 857.342 251.612 855.435 249.8C854.259 248.683 852.763 247.961 851.157 247.737C849.55 247.512 847.913 247.797 846.476 248.549C845.092 249.376 843.955 250.557 843.181 251.97C842.407 253.383 842.025 254.978 842.075 256.588C842.738 254.558 844.131 252.846 845.984 251.784C847.42 251.033 849.055 250.75 850.66 250.974C852.264 251.199 853.759 251.919 854.934 253.035C856.849 254.854 858.152 257.77 860.655 258.297C863.159 258.823 865.575 256.425 866.472 253.785C866.948 252.236 867.254 250.639 867.387 249.024C867.28 249.541 867.141 250.051 866.973 250.551Z" fill="black"/>
<path opacity="0.1" d="M874.774 227.957C872.91 232.874 869.525 237.118 868.405 242.293C868.181 243.337 868.051 244.407 867.922 245.476C869.061 240.3 872.418 236.091 874.283 231.192C875.112 228.973 875.63 226.651 875.821 224.291C875.566 225.537 875.217 226.762 874.777 227.956L874.774 227.957Z" fill="black"/>
</g>
<path d="M631.336 365.352C631.73 365.246 631.964 364.84 631.858 364.444C631.752 364.048 631.347 363.813 630.952 363.919C630.558 364.025 630.324 364.431 630.43 364.827C630.536 365.222 630.942 365.457 631.336 365.352Z" fill="#F2F2F2"/>
<rect x="608.447" y="339.9" width="36.5342" height="77.3305" rx="5" transform="rotate(-15 608.447 339.9)" fill="#161616"/>
<path d="M648.4 347.093L648.331 347.112C648.148 347.163 648.042 347.353 648.093 347.536L649.588 352.871C649.639 353.054 649.829 353.161 650.012 353.109L650.081 353.09C650.264 353.039 650.371 352.849 650.319 352.667L648.824 347.331C648.773 347.148 648.583 347.041 648.4 347.093Z" fill="#161616"/>
<path d="M643.549 335.003L661.31 401.287C661.521 402.077 661.411 402.918 661.004 403.625C660.597 404.332 659.927 404.848 659.141 405.059L632.336 412.242C631.946 412.347 631.54 412.374 631.139 412.321C630.739 412.268 630.353 412.136 630.003 411.934C629.654 411.731 629.347 411.461 629.101 411.14C628.855 410.818 628.675 410.451 628.571 410.06L610.81 343.776C610.705 343.384 610.678 342.977 610.73 342.575C610.782 342.174 610.913 341.787 611.114 341.436C611.316 341.086 611.584 340.779 611.904 340.533C612.224 340.287 612.589 340.106 612.979 340.002L616.99 338.927L617.129 339.443C617.303 340.094 617.727 340.649 618.309 340.986C618.89 341.323 619.581 341.415 620.229 341.242L633.862 337.589C634.384 337.45 634.847 337.146 635.182 336.722C635.25 336.638 635.312 336.549 635.368 336.455C635.546 336.163 635.662 335.837 635.71 335.498C635.758 335.158 635.736 334.812 635.647 334.481L635.509 333.965L639.784 332.819C640.174 332.715 640.58 332.688 640.98 332.742C641.38 332.795 641.766 332.927 642.116 333.129C642.466 333.332 642.772 333.602 643.018 333.924C643.264 334.245 643.445 334.612 643.549 335.003Z" fill="#3F3D56"/>
<path d="M635.401 336.448C635.345 336.541 635.283 336.631 635.214 336.715C636.502 338.025 638.047 339.052 639.751 339.732C641.455 340.411 643.28 340.729 645.112 340.664L645.026 340.345C643.241 340.398 641.465 340.078 639.808 339.408C638.151 338.737 636.651 337.729 635.401 336.448Z" fill="#3A76FF"/>
<path d="M629.483 338.764L629.148 338.854C631.147 341.563 633.819 343.7 636.897 345.051C639.975 346.402 643.352 346.919 646.689 346.552L646.604 346.235C643.352 346.585 640.063 346.08 637.061 344.771C634.059 343.461 631.448 341.391 629.483 338.764Z" fill="#3A76FF"/>
<path d="M619.524 355.775L619.339 355.825L619.289 355.639L619.252 355.648L619.302 355.835L619.116 355.885L619.126 355.921L619.312 355.871L619.362 356.058L619.398 356.048L619.348 355.862L619.534 355.812L619.524 355.775Z" fill="#F2F2F2"/>
<path d="M629.575 343.103L629.389 343.152L629.339 342.966L629.303 342.976L629.353 343.162L629.167 343.212L629.177 343.248L629.363 343.198L629.413 343.385L629.449 343.375L629.399 343.189L629.585 343.139L629.575 343.103Z" fill="#F2F2F2"/>
<path d="M623.335 362.65L623.149 362.7L623.099 362.514L623.063 362.523L623.113 362.71L622.927 362.76L622.937 362.796L623.123 362.746L623.173 362.933L623.209 362.923L623.159 362.737L623.345 362.687L623.335 362.65Z" fill="#F2F2F2"/>
<path d="M630.448 354.932L630.262 354.981L630.212 354.795L630.176 354.805L630.226 354.991L630.04 355.041L630.05 355.077L630.236 355.028L630.286 355.214L630.322 355.204L630.272 355.018L630.458 354.968L630.448 354.932Z" fill="#F2F2F2"/>
<path d="M643.593 355.029L643.407 355.079L643.357 354.892L643.321 354.902L643.371 355.088L643.185 355.138L643.194 355.175L643.38 355.125L643.43 355.311L643.467 355.301L643.417 355.115L643.602 355.065L643.593 355.029Z" fill="#F2F2F2"/>
<path d="M639.18 347.128C639.405 347.068 639.539 346.836 639.478 346.61C639.418 346.384 639.186 346.249 638.961 346.31C638.735 346.37 638.602 346.602 638.662 346.828C638.723 347.054 638.955 347.189 639.18 347.128Z" fill="#FF6584"/>
<path d="M628.946 367.395L628.724 367.493C628.921 367.938 629.106 368.398 629.273 368.856L629.501 368.773C629.332 368.309 629.146 367.845 628.946 367.395Z" fill="#E6E6E6"/>
<path d="M627.562 364.768L627.356 364.897C627.613 365.311 627.858 365.74 628.084 366.171L628.299 366.058C628.07 365.621 627.821 365.188 627.562 364.768Z" fill="#E6E6E6"/>
<path d="M625.834 362.356L625.647 362.511C625.958 362.888 626.26 363.278 626.544 363.674L626.741 363.532C626.453 363.132 626.149 362.736 625.834 362.356Z" fill="#E6E6E6"/>
<path d="M623.794 360.207L623.629 360.386C623.988 360.715 624.34 361.062 624.675 361.414L624.85 361.246C624.512 360.889 624.156 360.54 623.794 360.207Z" fill="#E6E6E6"/>
<path d="M621.475 358.357L621.338 358.557C621.738 358.834 622.134 359.129 622.515 359.433L622.665 359.242C622.281 358.935 621.88 358.637 621.475 358.357Z" fill="#E6E6E6"/>
<path d="M618.929 356.84L618.82 357.056C619.255 357.276 619.688 357.515 620.105 357.764L620.229 357.554C619.807 357.302 619.369 357.062 618.929 356.84Z" fill="#E6E6E6"/>
<path d="M616.2 355.682L616.12 355.912C616.581 356.07 617.041 356.247 617.489 356.438L617.584 356.214C617.13 356.022 616.665 355.843 616.2 355.682Z" fill="#E6E6E6"/>
<path d="M613.82 355.008L613.892 355.274C614.17 355.337 614.447 355.406 614.721 355.48L614.783 355.245C614.465 355.159 614.144 355.08 613.82 355.008Z" fill="#E6E6E6"/>
<path d="M632.897 382.349C632.874 382.11 632.846 381.867 632.814 381.627L633.055 381.596C633.087 381.838 633.115 382.084 633.139 382.326L632.897 382.349Z" fill="#E6E6E6"/>
<path d="M632.982 385.285L633.225 385.295C633.244 384.802 633.246 384.302 633.232 383.809L632.989 383.816C633.003 384.304 633.001 384.798 632.982 385.285Z" fill="#E6E6E6"/>
<path d="M632.666 388.203L632.905 388.246C632.992 387.761 633.063 387.267 633.116 386.777L632.874 386.75C632.822 387.234 632.752 387.723 632.666 388.203Z" fill="#E6E6E6"/>
<path d="M631.953 391.051L632.184 391.127C632.336 390.658 632.474 390.178 632.594 389.7L632.359 389.639C632.241 390.112 632.103 390.587 631.953 391.051Z" fill="#E6E6E6"/>
<path d="M630.854 393.774L631.073 393.881C631.289 393.436 631.49 392.979 631.675 392.523L631.45 392.432C631.268 392.883 631.068 393.334 630.854 393.774Z" fill="#E6E6E6"/>
<path d="M629.397 396.319L629.599 396.454C629.873 396.044 630.135 395.619 630.38 395.193L630.17 395.071C629.928 395.493 629.667 395.912 629.397 396.319Z" fill="#E6E6E6"/>
<path d="M627.609 398.639L627.791 398.802C628.117 398.433 628.435 398.048 628.735 397.659L628.543 397.509C628.246 397.895 627.931 398.275 627.609 398.639Z" fill="#E6E6E6"/>
<path d="M626.77 399.876C626.53 400.113 626.282 400.346 626.028 400.571L625.958 400.307C626.176 400.111 626.39 399.907 626.599 399.703L626.77 399.876Z" fill="#E6E6E6"/>
<path d="M629.737 370.287L629.971 370.22C630.039 370.457 630.103 370.695 630.162 370.93L629.926 370.989C629.868 370.757 629.805 370.521 629.737 370.287Z" fill="#E6E6E6"/>
<path d="M634.209 385.479C634.209 385.479 638.205 391.254 637.387 395.306C636.568 399.359 642.233 402.222 642.233 402.222C642.233 402.222 652.521 392.894 650.177 390.236C647.832 387.579 644.198 384.172 644.022 381.481L634.209 385.479Z" fill="#FFB8B8"/>
<path d="M639.212 386.778C643.677 385.582 646.325 380.992 645.129 376.525C643.932 372.059 639.343 369.408 634.878 370.604C630.414 371.8 627.765 376.391 628.962 380.857C630.159 385.324 634.748 387.975 639.212 386.778Z" fill="#FFB8B8"/>
<path d="M660.408 402.828C660.267 403.156 660.091 403.469 659.882 403.759C659.788 403.889 659.688 404.013 659.581 404.133C658.965 404.83 658.11 405.226 657.142 405.486L636.603 410.989L634.327 401.072L635.256 395.407C635.875 395.67 636.518 395.875 637.176 396.021C637.333 396.058 637.497 396.092 637.668 396.124C640.082 396.58 643.82 396.548 646.533 393.12C647.387 392.042 648.139 390.625 648.718 388.782L656.002 390.66L657.371 394.442L660.408 402.828Z" fill="white"/>
<path d="M636.846 390.879L637.418 394.272L637.721 396.065L638.171 398.735L640.097 410.161L634.056 411.779C633.683 411.88 633.3 411.935 632.913 411.943L627.559 401.488L627.616 401.424L636.846 390.879Z" fill="#2F2E41"/>
<path d="M657.954 387.996L660.881 399.735C661.066 400.43 661.528 401.772 661.398 402.48C661.267 403.188 661.192 403.434 660.771 404.019C660.678 404.148 660.26 404.45 660.153 404.568C659.52 405.287 658.362 405.436 657.436 405.682L649.305 407.861C648.485 404.093 647.826 400.378 647.345 397.117C647.141 395.727 646.97 394.42 646.833 393.226C646.391 389.379 646.308 386.708 646.64 386.256L649.929 387.346L657.954 387.996Z" fill="#2F2E41"/>
<path d="M635.659 409.085L635.94 411.275L633.969 411.803C633.601 411.903 632.847 412.199 632.465 412.206C630.936 412.616 630.395 412.33 629.536 411.675C628.676 411.021 628.381 409.405 628.1 408.356L627.986 407.93L626.86 403.729L627.587 401.491L628.951 400.905L635.659 409.085Z" fill="#2F2E41"/>
<path d="M657.883 389.36L660.629 399.606C660.814 400.302 660.842 401.03 660.712 401.738C660.582 402.446 660.296 403.117 659.876 403.703C659.783 403.832 659.683 403.957 659.577 404.075L656.904 399.042L657.372 394.412L657.883 389.36Z" fill="#2F2E41"/>
<path d="M642.852 369.244C641.088 367.57 638.771 366.609 636.347 366.546L635.053 368.313L635.28 366.595C634.718 366.657 634.164 366.772 633.624 366.938L632.654 369.252L632.772 367.236C630.296 368.252 628.234 370.308 627.329 372.845C626.174 376.087 626.875 379.978 629.471 382.238C629.559 380.527 629.782 378.883 629.871 377.172C630.002 377.191 630.447 377.069 631.081 376.854L631.311 375.234L631.858 376.58C633.736 375.896 636.489 374.763 638.222 373.935L637.758 372.914L639.057 373.518C639.581 373.239 639.881 373.033 639.83 372.951C641.774 374.784 643.494 375.827 645.438 377.659C645.123 374.424 645.341 371.605 642.852 369.244Z" fill="#2F2E41"/>
<path d="M644.51 377.449C644.789 377.375 644.894 376.861 644.744 376.303C644.595 375.745 644.247 375.353 643.968 375.428C643.689 375.502 643.584 376.016 643.734 376.574C643.883 377.132 644.231 377.524 644.51 377.449Z" fill="#FFB8B8"/>
<path d="M630.893 354.722C629.985 354.966 629.026 354.933 628.135 354.63C627.245 354.326 626.464 353.764 625.891 353.016C625.318 352.268 624.979 351.366 624.917 350.426C624.855 349.485 625.072 348.548 625.542 347.732C626.011 346.916 626.711 346.258 627.554 345.842C628.397 345.426 629.344 345.269 630.276 345.393C631.208 345.517 632.083 345.915 632.79 346.537C633.497 347.159 634.005 347.977 634.249 348.888C634.575 350.109 634.404 351.409 633.775 352.503C633.146 353.597 632.11 354.395 630.893 354.722ZM628.549 345.974C627.732 346.193 626.998 346.65 626.441 347.287C625.884 347.925 625.528 348.714 625.418 349.555C625.308 350.396 625.45 351.251 625.825 352.012C626.199 352.773 626.791 353.406 627.524 353.831C628.257 354.256 629.098 354.453 629.943 354.398C630.787 354.343 631.595 354.039 632.266 353.523C632.937 353.007 633.44 352.303 633.711 351.5C633.982 350.697 634.01 349.831 633.79 349.011C633.494 347.913 632.777 346.976 631.794 346.407C630.811 345.837 629.644 345.682 628.549 345.974L628.549 345.974Z" fill="white"/>
<path d="M627.408 350.283C627.803 350.177 628.036 349.771 627.93 349.375C627.824 348.98 627.419 348.745 627.024 348.85C626.63 348.956 626.396 349.362 626.502 349.758C626.608 350.153 627.014 350.388 627.408 350.283Z" fill="white"/>
<path d="M631.603 349.209C631.997 349.103 632.228 348.687 632.118 348.278C632.009 347.869 631.6 347.624 631.206 347.73C630.812 347.835 630.581 348.252 630.69 348.661C630.8 349.069 631.208 349.315 631.603 349.209Z" fill="white"/>
<path d="M630.566 352.976C629.955 353.149 629.248 353.125 628.446 352.902C628.386 352.886 628.337 352.847 628.309 352.796C628.281 352.744 628.276 352.683 628.295 352.626C628.314 352.569 628.356 352.521 628.411 352.492C628.467 352.464 628.531 352.457 628.59 352.473C630.003 352.866 631.03 352.579 631.731 351.598C631.766 351.548 631.82 351.513 631.882 351.501C631.943 351.488 632.006 351.499 632.057 351.532C632.109 351.564 632.144 351.614 632.155 351.672C632.166 351.73 632.152 351.791 632.117 351.84C631.703 352.421 631.184 352.8 630.566 352.976Z" fill="white"/>
<path d="M643.552 354.065L639.633 355.115L639.494 354.596L642.81 353.708L642.046 350.857L642.649 350.695L643.552 354.065Z" fill="white"/>
<path d="M616.883 348.982L616.28 349.143L615.227 345.212L619.145 344.162L619.307 344.767L615.991 345.655L616.883 348.982Z" fill="white"/>
<path d="M125.955 295.383C148.174 295.383 166.186 277.293 166.186 254.979C166.186 232.665 148.174 214.576 125.955 214.576C103.737 214.576 85.7246 232.665 85.7246 254.979C85.7246 277.293 103.737 295.383 125.955 295.383Z" fill="#2F2E41"/>
<path d="M28.6414 520.878L26.4667 533.982C26.4667 533.982 14.5062 578.753 29.7287 576.569C44.9512 574.385 39.5146 536.166 39.5146 536.166L41.6892 524.154L28.6414 520.878Z" fill="#FFB9B9"/>
<path d="M162.924 459.18H74.8509C74.8509 459.18 49.8425 498.492 59.6284 567.287C69.4142 636.082 65.065 790.052 65.065 790.052H98.772L121.606 548.723L169.448 790.052L200.98 786.776L183.583 508.32L162.924 459.18Z" fill="#2F2E41"/>
<path d="M74.3099 786.23L73.2226 826.634C73.2226 826.634 59.0875 867.037 79.7466 862.67C100.406 858.302 102.58 849.566 102.58 846.29C102.58 843.014 97.1436 786.23 97.1436 786.23H74.3099Z" fill="#2F2E41"/>
<path d="M195.455 783.161L201.68 826.369C201.68 826.369 220.845 864.624 199.799 862.947C178.754 861.269 175.484 852.884 175.067 849.635C174.649 846.386 172.809 786.095 172.809 786.095L195.455 783.161Z" fill="#2F2E41"/>
<path d="M126.5 294.836C142.714 294.836 155.858 281.636 155.858 265.353C155.858 249.069 142.714 235.869 126.5 235.869C110.286 235.869 97.1426 249.069 97.1426 265.353C97.1426 281.636 110.286 294.836 126.5 294.836Z" fill="#FFB9B9"/>
<path d="M148.789 277.911L160.75 319.406L136.828 343.43L123.78 320.499L119.432 287.739L148.789 277.911Z" fill="#FFB9B9"/>
<path d="M159.12 305.756C159.12 305.756 157.519 294.742 153.97 295.881C150.421 297.021 118.889 304.664 118.889 307.94V322.136L92.7934 423.691L86.2695 465.186L154.771 464.094L165.644 319.952L159.12 305.756Z" fill="#E6E6E6"/>
<path d="M153.139 294.291L160.751 296.475L173.255 309.033C173.255 309.033 203.7 303.573 208.049 317.769C212.399 331.965 184.128 508.866 184.128 508.866C184.128 508.866 136.286 525.246 128.675 483.751C121.064 442.255 121.607 406.766 136.83 380.558C152.052 354.35 153.139 294.291 153.139 294.291Z" fill="#2F2E41"/>
<path d="M121.596 304.035L117.258 306.302L113.452 323.228C113.452 323.228 81.9197 331.964 79.7451 343.976C77.5704 355.988 80.8324 421.507 80.8324 421.507C80.8324 421.507 50.3874 483.75 55.824 509.958C55.824 509.958 68.8719 520.878 78.6578 506.682C88.4437 492.486 112.365 407.311 113.452 401.851C114.539 396.391 126.478 305.59 121.596 304.035Z" fill="#2F2E41"/>
<path d="M91.7057 339.607L80.0622 342.778L72.1335 365.815L55.8235 424.782L24.291 521.97L46.038 531.797L80.8316 460.818L91.7057 339.607Z" fill="#2F2E41"/>
<path d="M148.788 261.531C130.095 254.759 123.769 250.599 103.121 261.531L95.5098 230.955H156.4L148.788 261.531Z" fill="#2F2E41"/>
<path d="M122.693 235.323C135.304 235.323 145.527 225.057 145.527 212.392C145.527 199.727 135.304 189.46 122.693 189.46C110.082 189.46 99.8594 199.727 99.8594 212.392C99.8594 225.057 110.082 235.323 122.693 235.323Z" fill="#2F2E41"/>
<path d="M95.5106 206.932C95.5134 201.043 97.7739 195.381 101.823 191.121C105.872 186.861 111.399 184.331 117.257 184.055C116.894 184.038 116.537 184 116.17 184C110.114 184 104.306 186.416 100.024 190.717C95.7417 195.017 93.3359 200.85 93.3359 206.932C93.3359 213.014 95.7417 218.846 100.024 223.147C104.306 227.447 110.114 229.863 116.17 229.863C116.537 229.863 116.894 229.826 117.257 229.808C111.399 229.533 105.873 227.002 101.823 222.743C97.774 218.483 95.5134 212.821 95.5106 206.932Z" fill="#2F2E41"/>
<path d="M208.971 488.495L162.81 472.74L141.878 465.596L95.5286 449.776C94.7005 449.493 93.789 449.569 92.9946 449.986C92.2001 450.403 91.5879 451.128 91.2925 452.001L68.7461 518.626C68.4507 519.499 68.4963 520.449 68.873 521.266C69.2497 522.083 69.9266 522.701 70.7547 522.983L184.197 561.703C185.025 561.986 185.936 561.91 186.731 561.493C187.525 561.075 188.137 560.35 188.433 559.477L210.979 492.852C211.125 492.42 211.19 491.964 211.168 491.512C211.146 491.059 211.039 490.617 210.852 490.213C210.666 489.808 210.404 489.448 210.081 489.154C209.758 488.859 209.381 488.635 208.971 488.495Z" fill="#3F3D56"/>
<path d="M144.448 511.961C144.088 512.364 143.704 512.717 143.293 513.022C142.734 513.438 142.3 513.71 141.992 513.838C141.509 514.056 141.056 514.098 140.631 513.965C140.328 513.862 139.992 513.65 139.627 513.328C139.26 513.007 138.898 512.786 138.54 512.664C138.164 512.537 137.732 512.487 137.241 512.517C136.75 512.548 136.371 512.522 136.102 512.441C135.691 512.321 135.349 512.003 135.075 511.486C134.895 511.172 134.705 510.673 134.506 509.99C134.292 509.26 134.183 508.46 134.18 507.59C134.179 506.652 134.311 505.788 134.577 504.998C134.882 504.094 135.338 503.38 135.943 502.857C136.423 502.435 136.966 502.158 137.573 502.026C138.18 501.893 138.777 501.924 139.368 502.114C139.689 502.223 140.076 502.467 140.533 502.843C140.987 503.219 141.289 503.434 141.436 503.484C141.545 503.522 141.957 503.53 142.668 503.51C143.338 503.495 143.872 503.576 144.273 503.751C145.36 504.223 146.05 504.956 146.337 505.952C145.129 506.228 144.344 506.921 143.981 508.03C143.7 508.893 143.766 509.714 144.179 510.489C144.364 510.846 144.601 511.154 144.893 511.415C144.746 511.607 144.598 511.789 144.448 511.961L144.448 511.961ZM145.336 500.844C145.109 501.519 144.654 502.066 143.973 502.485C143.155 502.979 142.314 503.14 141.569 502.816C141.587 502.728 141.611 502.641 141.64 502.555C141.858 501.907 142.369 501.308 143.054 500.909C143.397 500.706 143.791 500.574 144.235 500.513C144.677 500.454 145.07 500.472 145.414 500.569C145.393 500.663 145.367 500.754 145.336 500.844L145.336 500.844Z" fill="white"/>
<path d="M162.541 502.805L157.564 515.113C157.564 515.113 144.418 559.548 132.586 549.685C120.754 539.821 145.308 510.115 145.308 510.115L149.716 498.737L162.541 502.805Z" fill="#FFB9B9"/>
<path d="M192.826 321.045L208.049 317.769C210.211 324.202 211.964 330.767 213.296 337.424C215.471 348.344 212.114 434.611 209.939 443.347C207.765 452.083 168.335 510.29 168.335 510.29L132.852 502.558L184.128 424.783L192.826 321.045Z" fill="#2F2E41"/>
<path opacity="0.2" d="M184.647 376.548L175.191 428.778L139.732 501.187L171.646 425.217L184.647 376.548Z" fill="black"/>
<circle cx="387" cy="490" r="5" fill="#3A76FF"/>
</svg>
