<svg width="1011" height="728" viewBox="0 0 1011 728" fill="none" xmlns="http://www.w3.org/2000/svg">
<path d="M255.661 676.628L325.199 567.267L169.467 468.232L89.043 594.715L217.853 676.628H255.661Z" fill="#F0F0F0"/>
<path d="M558.884 325.398V240.387H601.387V199H393.348V407.054H571.188V386.711C571.188 382.919 571.935 379.166 573.385 375.662C574.836 372.159 576.963 368.975 579.644 366.294C582.325 363.613 585.509 361.485 589.012 360.035C592.515 358.584 596.269 357.837 600.06 357.837H601.387V325.398H558.884Z" fill="#F0F0F0"/>
<path d="M630.468 252.691H572.307V310.857H630.468V252.691Z" fill="#F0F0F0"/>
<path d="M799.359 295.197C796.705 295.197 794.11 294.409 791.902 292.934C789.695 291.46 787.975 289.363 786.958 286.911C785.943 284.458 785.678 281.759 786.196 279.155C786.713 276.551 787.991 274.16 789.869 272.282C791.746 270.405 794.137 269.127 796.741 268.609C799.344 268.091 802.043 268.357 804.495 269.373C806.948 270.389 809.044 272.109 810.519 274.317C811.994 276.524 812.781 279.119 812.781 281.774C812.776 285.333 811.362 288.744 808.845 291.261C806.329 293.777 802.918 295.193 799.359 295.197ZM799.359 270.588C797.147 270.588 794.985 271.244 793.145 272.473C791.306 273.702 789.872 275.449 789.025 277.493C788.179 279.537 787.957 281.786 788.389 283.956C788.821 286.126 789.885 288.119 791.45 289.683C793.014 291.248 795.007 292.313 797.177 292.745C799.347 293.176 801.596 292.955 803.64 292.108C805.683 291.261 807.43 289.828 808.659 287.988C809.888 286.149 810.544 283.986 810.544 281.774C810.541 278.808 809.361 275.965 807.264 273.868C805.167 271.771 802.324 270.592 799.359 270.588Z" fill="#3F3D56"/>
<path d="M947.001 699H917.92V669.917H947.001V699ZM920.157 696.763H944.764V672.154H920.157V696.763Z" fill="#3F3D56"/>
<g clip-path="url(#clip0)">
<path d="M1010.89 727.284C958.803 719.655 908.709 713.078 860.61 707.554L879.63 676.776C873.218 674.882 845.045 692.428 845.045 692.428L870.012 602.948C837.764 606.054 821.355 697.461 821.355 697.461L785.33 666.365L802.768 701.218C655.555 686.023 528.417 680.054 421.478 679.365L437.757 653.023C431.345 651.128 403.172 668.674 403.172 668.674L428.139 579.194C395.891 582.301 379.482 673.707 379.482 673.707L343.457 642.611L361.926 679.527C272.275 680.613 199.166 685.398 142.736 690.978C159.203 649.9 215.129 611.018 215.129 611.018C172.421 621.454 150.017 639.169 138.309 655.728C137.414 604.91 143.435 510.728 188.165 406.633C188.165 406.633 99.8691 567.042 111.117 675.041L112.461 694.216C37.625 702.841 0 712 0 712L1010.89 727.284Z" fill="#3F3D56"/>
<path d="M537.527 29.13V677.33C537.52 685.052 534.447 692.454 528.986 697.912C523.524 703.371 516.119 706.438 508.397 706.44H245.247C241.422 706.447 237.632 705.699 234.096 704.238C230.56 702.778 227.347 700.634 224.641 697.93C221.935 695.226 219.789 692.014 218.327 688.479C216.864 684.944 216.113 681.156 216.117 677.33V29.13C216.117 25.3045 216.87 21.5164 218.334 17.982C219.798 14.4477 221.943 11.2363 224.648 8.53124C227.353 5.82621 230.565 3.68052 234.099 2.21671C237.634 0.752912 241.422 -0.000329615 245.247 1.36667e-06H284.627V5.05C284.626 11.4111 287.152 17.512 291.649 22.0108C296.146 26.5097 302.246 29.0381 308.607 29.04H442.447C447.567 29.0509 452.554 27.4096 456.667 24.36C457.499 23.7552 458.287 23.0936 459.027 22.38C461.37 20.143 463.234 17.4535 464.506 14.4745C465.778 11.4955 466.432 8.28919 466.427 5.05V1.36667e-06H508.397C512.223 -0.00117066 516.011 0.751501 519.546 2.21501C523.081 3.67851 526.293 5.82416 528.998 8.52937C531.703 11.2346 533.849 14.4463 535.312 17.981C536.776 21.5158 537.528 25.3043 537.527 29.13V29.13Z" fill="#3F3D56"/>
<path d="M289.426 115C293.292 115 296.426 111.866 296.426 108C296.426 104.134 293.292 101 289.426 101C285.56 101 282.426 104.134 282.426 108C282.426 111.866 285.56 115 289.426 115Z" fill="#F2F2F2"/>
<path d="M459.026 22.3799C458.286 23.0935 457.497 23.7551 456.666 24.3599C465.239 39.4467 476.854 52.5874 490.773 62.9488C504.693 73.3101 520.614 80.666 537.526 84.5499V81.4299C521.07 77.548 505.598 70.2963 492.087 60.1326C478.576 49.9689 467.318 37.1141 459.026 22.3799Z" fill="#3A76FF"/>
<path d="M399.216 29.04H395.936C407.58 58.626 426.785 84.6379 451.631 104.476C476.478 124.315 506.096 137.285 537.526 142.09V138.99C506.914 134.236 478.066 121.6 453.817 102.323C429.567 83.0453 410.751 57.7906 399.216 29.04V29.04Z" fill="#3A76FF"/>
<path d="M338.797 29.04H335.637C362.067 120.78 441.817 189.07 537.527 200.16V197.11C443.477 186.07 365.097 119.08 338.797 29.04Z" fill="#3A76FF"/>
<path d="M266.426 159.822H264.604V158H264.249V159.822H262.426V160.178H264.249V162H264.604V160.178H266.426V159.822Z" fill="#F2F2F2"/>
<path d="M389.426 68.822H387.604V67H387.249V68.822H385.426V69.178H387.249V71H387.604V69.178H389.426V68.822Z" fill="#F2F2F2"/>
<path d="M284.426 231.822H282.604V230H282.249V231.822H280.426V232.178H282.249V234H282.604V232.178H284.426V231.822Z" fill="#F2F2F2"/>
<path d="M368.426 178.822H366.604V177H366.249V178.822H364.426V179.178H366.249V181H366.604V179.178H368.426V178.822Z" fill="#F2F2F2"/>
<path d="M488.426 211.822H486.604V210H486.249V211.822H484.426V212.178H486.249V214H486.604V212.178H488.426V211.822Z" fill="#F2F2F2"/>
<path d="M467.426 129C469.635 129 471.426 127.209 471.426 125C471.426 122.791 469.635 121 467.426 121C465.217 121 463.426 122.791 463.426 125C463.426 127.209 465.217 129 467.426 129Z" fill="#FF6584"/>
<path d="M324.127 218.8L321.857 219.15C322.567 223.69 323.127 228.33 323.537 232.92L325.827 232.72C325.417 228.07 324.847 223.39 324.127 218.8Z" fill="#E6E6E6"/>
<path d="M317.917 191.46L315.717 192.13C317.047 196.53 318.237 201.04 319.247 205.53L321.497 205.02C320.467 200.48 319.257 195.92 317.917 191.46Z" fill="#E6E6E6"/>
<path d="M308.006 165.24L305.916 166.2C307.836 170.39 309.636 174.69 311.266 178.99L313.416 178.18C311.766 173.83 309.956 169.47 308.006 165.24Z" fill="#E6E6E6"/>
<path d="M294.606 140.66L292.666 141.89C295.136 145.77 297.506 149.79 299.706 153.82L301.726 152.72C299.506 148.64 297.106 144.58 294.606 140.66Z" fill="#E6E6E6"/>
<path d="M277.947 118.13L276.197 119.62C279.177 123.12 282.077 126.78 284.817 130.48L286.657 129.11C283.897 125.37 280.967 121.67 277.947 118.13Z" fill="#E6E6E6"/>
<path d="M258.366 98.0698L256.836 99.7798C260.276 102.85 263.646 106.08 266.856 109.37L268.506 107.76C265.256 104.43 261.846 101.17 258.366 98.0698Z" fill="#E6E6E6"/>
<path d="M236.247 80.8501L234.957 82.7501C238.777 85.3201 242.557 88.0601 246.187 90.8901L247.607 89.08C243.927 86.2201 240.107 83.4502 236.247 80.8501Z" fill="#E6E6E6"/>
<path d="M216.117 68.8901V71.4901C218.507 72.7401 220.877 74.0501 223.197 75.3901L224.347 73.4001C221.647 71.8401 218.904 70.3367 216.117 68.8901Z" fill="#E6E6E6"/>
<path d="M323.607 434.803C323.98 432.567 324.322 430.284 324.622 428.018L326.901 428.32C326.598 430.611 326.253 432.919 325.876 435.181L323.607 434.803Z" fill="#E6E6E6"/>
<path d="M317.197 461.782L319.395 462.466C320.773 458.023 322.021 453.47 323.102 448.935L320.863 448.405C319.792 452.892 318.566 457.387 317.197 461.782Z" fill="#E6E6E6"/>
<path d="M307.156 487.614L309.243 488.592C311.226 484.384 313.083 480.048 314.767 475.708L312.621 474.871C310.957 479.164 309.12 483.453 307.156 487.614Z" fill="#E6E6E6"/>
<path d="M293.645 511.847L295.573 513.099C298.116 509.2 300.556 505.157 302.827 501.09L300.822 499.965C298.58 503.987 296.16 507.983 293.645 511.847Z" fill="#E6E6E6"/>
<path d="M276.928 533.986L278.67 535.496C281.73 531.968 284.696 528.298 287.507 524.586L285.665 523.209C282.894 526.878 279.957 530.503 276.928 533.986Z" fill="#E6E6E6"/>
<path d="M257.354 553.631L258.868 555.36C262.384 552.292 265.822 549.056 269.108 545.768L267.482 544.139C264.233 547.394 260.824 550.585 257.354 553.631Z" fill="#E6E6E6"/>
<path d="M235.301 570.422L236.571 572.345C240.454 569.782 244.31 567.049 248.009 564.233L246.619 562.397C242.955 565.19 239.146 567.891 235.301 570.422Z" fill="#E6E6E6"/>
<path d="M224.607 579.65C221.827 581.22 218.987 582.74 216.117 584.18V581.6C218.597 580.34 221.057 579.01 223.467 577.66L224.607 579.65Z" fill="#E6E6E6"/>
<path d="M324.281 247.106L326.58 247.064C326.622 249.385 326.625 251.718 326.589 254L324.291 253.964C324.326 251.709 324.323 249.401 324.281 247.106Z" fill="#E6E6E6"/>
<path d="M226.217 301.632H461.427C478.931 301.632 495.718 308.585 508.096 320.963C520.473 333.34 527.427 350.128 527.427 367.632V376.368H292.217C274.712 376.368 257.925 369.415 245.548 357.037C233.17 344.66 226.217 327.872 226.217 310.368V301.632V301.632Z" fill="white"/>
<path d="M382.315 705.521C382.086 705.146 376.675 696.111 374.799 677.35C373.078 660.137 374.185 631.123 389.231 590.651C417.737 513.98 382.662 452.118 382.304 451.502L384.034 450.498C384.125 450.654 393.176 466.427 398.522 491.542C405.587 524.839 403.015 559.461 391.106 591.349C362.649 667.889 383.806 704.122 384.022 704.479L382.315 705.521Z" fill="#F2F2F2"/>
<path d="M371.17 447C378.35 447 384.17 441.18 384.17 434C384.17 426.82 378.35 421 371.17 421C363.99 421 358.17 426.82 358.17 434C358.17 441.18 363.99 447 371.17 447Z" fill="#3A76FF"/>
<path d="M412.17 495C419.35 495 425.17 489.18 425.17 482C425.17 474.82 419.35 469 412.17 469C404.99 469 399.17 474.82 399.17 482C399.17 489.18 404.99 495 412.17 495Z" fill="#F2F2F2"/>
<path d="M384.17 527C391.35 527 397.17 521.18 397.17 514C397.17 506.82 391.35 501 384.17 501C376.99 501 371.17 506.82 371.17 514C371.17 521.18 376.99 527 384.17 527Z" fill="#3A76FF"/>
<path d="M418.17 554C425.35 554 431.17 548.18 431.17 541C431.17 533.82 425.35 528 418.17 528C410.99 528 405.17 533.82 405.17 541C405.17 548.18 410.99 554 418.17 554Z" fill="#3A76FF"/>
<path d="M374.17 596C381.35 596 387.17 590.18 387.17 583C387.17 575.82 381.35 570 374.17 570C366.99 570 361.17 575.82 361.17 583C361.17 590.18 366.99 596 374.17 596Z" fill="#F2F2F2"/>
<path d="M390.17 706C390.17 706 377.17 674 416.17 650L390.17 706Z" fill="#F2F2F2"/>
<path d="M374.181 705.42C374.181 705.42 368.265 671.39 322.473 671.682L374.181 705.42Z" fill="#F2F2F2"/>
<path opacity="0.2" d="M322.426 419C366.609 419 402.426 383.183 402.426 339C402.426 294.817 366.609 259 322.426 259C278.243 259 242.426 294.817 242.426 339C242.426 383.183 278.243 419 322.426 419Z" fill="#3A76FF"/>
<path opacity="0.2" d="M322.426 395.338C353.541 395.338 378.764 370.115 378.764 339C378.764 307.886 353.541 282.662 322.426 282.662C291.311 282.662 266.088 307.886 266.088 339C266.088 370.115 291.311 395.338 322.426 395.338Z" fill="#3A76FF"/>
<path d="M322.427 376.183C342.963 376.183 359.61 359.536 359.61 339C359.61 318.464 342.963 301.817 322.427 301.817C301.892 301.817 285.244 318.464 285.244 339C285.244 359.536 301.892 376.183 322.427 376.183Z" fill="#3A76FF"/>
<path d="M329.187 330.98C329.187 329.839 328.899 328.717 328.349 327.717C327.798 326.718 327.004 325.874 326.04 325.264C325.075 324.655 323.972 324.299 322.834 324.23C321.695 324.161 320.557 324.382 319.526 324.871C318.496 325.361 317.606 326.103 316.939 327.029C316.273 327.955 315.852 329.035 315.715 330.168C315.578 331.3 315.73 332.449 316.157 333.507C316.584 334.566 317.271 335.498 318.156 336.219L315.666 353.648H329.187L326.697 336.219C327.476 335.586 328.103 334.787 328.534 333.881C328.965 332.975 329.188 331.984 329.187 330.98V330.98Z" fill="white"/>
<path d="M696.107 53.3001C696.107 53.3001 673.805 33.3052 643.812 70.9878C613.82 108.67 566.909 127.127 556.143 141.739C556.143 141.739 600.747 123.282 616.127 115.592C631.508 107.901 630.739 109.44 630.739 109.44C630.739 109.44 609.975 124.051 606.13 138.663C602.285 153.274 605.361 165.579 598.439 180.191C591.518 194.802 730.713 190.188 730.713 190.188C730.713 190.188 744.556 166.348 740.711 141.739C736.865 117.13 739.172 56.3762 696.107 53.3001Z" fill="#2F2E41"/>
<path d="M653.924 116.202C653.924 116.202 658.774 150.149 637.99 157.77C617.206 165.39 624.827 175.782 624.827 175.782L656.003 191.024L689.257 180.632L700.341 164.005C700.341 164.005 682.329 159.848 687.178 147.378C692.028 134.907 693.413 130.751 693.413 130.751L653.924 116.202Z" fill="#FFB9B9"/>
<path opacity="0.1" d="M653.924 116.202C653.924 116.202 658.774 150.149 637.99 157.77C617.206 165.39 624.827 175.782 624.827 175.782L656.003 191.024L689.257 180.632L700.341 164.005C700.341 164.005 682.329 159.848 687.178 147.378C692.028 134.907 693.413 130.751 693.413 130.751L653.924 116.202Z" fill="black"/>
<path d="M741.217 213.193C741.217 213.193 736.367 276.93 737.753 279.701C739.138 282.472 737.753 378.77 737.753 378.77C737.753 378.77 747.452 430.729 734.982 433.5C722.512 436.272 725.283 375.306 725.283 375.306L712.812 294.942L714.198 215.271L741.217 213.193Z" fill="#FFB9B9"/>
<path opacity="0.1" d="M741.217 213.193C741.217 213.193 736.367 276.93 737.753 279.701C739.138 282.472 737.753 378.77 737.753 378.77C737.753 378.77 747.452 430.729 734.982 433.5C722.512 436.272 725.283 375.306 725.283 375.306L712.812 294.942L714.198 215.271L741.217 213.193Z" fill="black"/>
<path d="M606.122 405.096C606.122 405.096 583.26 491.695 583.953 533.955C584.646 576.215 593.652 635.102 593.652 635.102C593.652 635.102 595.038 660.736 592.959 663.507C590.881 666.278 603.351 678.055 603.351 678.055L616.514 670.435L621.364 664.892V660.043C621.364 660.043 613.743 636.488 619.978 617.783C626.213 599.077 629.677 551.967 623.442 537.419L666.395 409.945L606.122 405.096Z" fill="#FFB9B9"/>
<path d="M604.736 666.971C604.736 666.971 596.422 656.579 590.88 660.043C585.338 663.507 576.331 687.062 576.331 687.062C576.331 687.062 545.156 716.852 567.325 718.237C589.494 719.623 599.193 712.002 601.965 706.46C604.736 700.918 630.369 686.369 630.369 686.369C630.369 686.369 627.598 660.043 623.441 659.35C619.284 658.657 613.049 669.742 613.049 669.742L604.736 666.971Z" fill="#2F2E41"/>
<path d="M681.637 410.638V496.544C681.717 506.968 682.411 517.378 683.715 527.72C685.793 542.961 671.938 656.579 671.938 656.579L673.323 676.67L690.643 675.284L692.721 657.965L717.662 581.758C717.662 581.758 725.975 535.341 721.818 518.021C717.662 500.701 743.295 389.854 743.295 389.854L681.637 410.638Z" fill="#FFB9B9"/>
<path d="M667.781 671.821L672.912 670.705C672.912 670.705 676.787 662.122 681.637 664.2C685.049 665.774 688.282 667.711 691.28 669.978L693.414 673.899C693.414 673.899 698.264 684.291 704.499 691.219C710.734 698.147 717.662 713.388 707.27 714.774C696.878 716.159 683.022 716.852 678.866 713.388C674.709 709.924 677.48 704.382 673.323 702.996C669.167 701.611 665.703 697.454 666.395 696.068C667.088 694.683 667.781 671.821 667.781 671.821Z" fill="#2F2E41"/>
<path d="M681.636 140.064C698.641 140.064 712.426 126.279 712.426 109.274C712.426 92.2691 698.641 78.4839 681.636 78.4839C664.631 78.4839 650.846 92.2691 650.846 109.274C650.846 126.279 664.631 140.064 681.636 140.064Z" fill="#FFB9B9"/>
<path d="M623.441 163.312L632.593 160.117C632.593 160.117 628.984 166.083 648.382 169.547C667.78 173.011 687.869 174.238 696.876 162.886C696.876 162.886 700.341 161.234 705.191 166.083C710.04 170.933 712.811 169.547 712.811 169.547L709.347 187.56L702.42 220.814L693.413 245.754L667.78 240.212L640.068 220.121L629.677 193.102V168.162L623.441 163.312Z" fill="#3A76FF"/>
<path d="M707.963 173.011L714.891 168.162C714.891 168.162 738.446 172.318 739.831 183.403L721.819 218.043C725.493 227.681 725.244 238.375 721.126 247.833C714.198 263.767 714.891 267.231 714.891 267.231L710.041 288.014L622.057 294.942C622.057 294.942 618.593 286.629 617.207 285.243C615.822 283.858 615.822 279.008 617.207 279.008C618.593 279.008 617.207 276.93 615.822 274.851C614.436 272.773 613.743 272.08 615.822 269.309C617.9 266.538 612.358 241.597 612.358 241.597V214.579L588.803 183.403C588.803 183.403 597.116 170.933 601.273 169.547C605.43 168.162 625.203 162.697 625.203 162.697L629.677 169.285L635.913 219.428L644.919 249.911L682.84 243.468L697.571 218.735L707.27 189.638L707.963 173.011Z" fill="#3A76FF"/>
<path d="M734.288 179.246L739.831 183.403C739.831 183.403 744.68 222.199 743.295 224.97C741.909 227.741 717.661 230.513 716.969 229.127C716.276 227.741 734.288 179.246 734.288 179.246Z" fill="#3A76FF"/>
<path d="M619.977 159.848L626.905 205.572C626.905 205.572 620.67 273.466 622.055 287.321L623.441 291.478C623.441 291.478 620.67 290.093 619.977 292.864C619.284 295.635 619.977 304.641 619.977 304.641C619.977 304.641 615.82 308.798 614.435 331.66C613.049 354.522 596.422 409.253 602.657 411.331C608.892 413.409 646.303 423.801 666.394 421.723C686.485 419.645 758.535 395.397 757.842 389.162C757.15 382.927 722.51 294.942 722.51 294.942C722.51 294.942 716.275 284.55 716.275 283.165C716.275 281.779 724.589 276.237 722.51 270.694C720.432 265.152 709.347 206.958 709.347 206.958L716.968 165.39L706.576 162.619L698.955 202.801C698.955 202.801 669.165 217.349 637.99 204.186L631.062 157.077L619.977 159.848Z" fill="#2F2E41"/>
<path d="M653.311 87.1771C653.311 87.1771 704.577 122.509 718.433 106.575C732.289 90.641 694.185 76.7852 694.185 76.7852L662.317 73.3213L653.311 87.1771Z" fill="#2F2E41"/>
<path d="M573.655 463.042C578.932 466.97 585.46 468.839 592.016 468.298C598.572 467.757 604.706 464.844 609.267 460.104C613.829 455.364 616.506 449.124 616.795 442.552C617.085 435.98 614.967 429.528 610.84 424.405C606.713 419.283 600.86 415.841 594.377 414.726C587.894 413.611 581.226 414.898 575.624 418.347C570.023 421.795 565.871 427.169 563.948 433.46C562.024 439.75 562.461 446.527 565.177 452.518L494.47 511.39L485.055 500.217L480.825 503.046L476.118 497.459L479.986 494.2L475.279 488.613L469.262 493.683L472.159 497.121L465.713 502.552L462.816 499.114L453.361 507.08L457.706 512.237L461.144 509.341L465.852 514.927L461.554 518.548L470.245 528.862L459.93 537.553L470.431 550.016L573.655 463.042ZM591.309 423.55C594.833 423.851 598.189 425.19 600.951 427.398C603.714 429.606 605.76 432.584 606.83 435.955C607.9 439.326 607.947 442.938 606.964 446.335C605.982 449.733 604.013 452.762 601.309 455.041C598.604 457.32 595.285 458.746 591.77 459.138C588.255 459.53 584.703 458.871 581.563 457.244C578.422 455.618 575.835 453.096 574.127 449.999C572.42 446.902 571.669 443.368 571.97 439.844C572.374 435.119 574.639 430.748 578.265 427.692C581.892 424.636 586.584 423.146 591.309 423.55V423.55Z" fill="#3A76FF"/>
<path d="M583.952 221.506C583.952 221.506 588.801 285.243 587.416 288.014C586.03 290.785 587.416 387.083 587.416 387.083C587.416 387.083 577.717 439.043 590.187 441.814C602.657 444.585 599.886 383.619 599.886 383.619L612.356 303.256L610.971 223.585L583.952 221.506Z" fill="#FFB9B9"/>
<path d="M594.344 181.324L588.802 183.403C588.802 183.403 578.41 227.048 581.181 227.048C583.952 227.048 617.206 231.205 617.206 229.82C617.206 228.434 610.971 194.487 610.971 194.487L594.344 181.324Z" fill="#3A76FF"/>
</g>
<defs>
<clipPath id="clip0">
<rect width="1010.89" height="727.284" fill="white"/>
</clipPath>
</defs>
</svg>
