<svg width="349" height="277" viewBox="0 0 349 277" fill="none" xmlns="http://www.w3.org/2000/svg">
<path d="M182.211 38.2363H133.602V110.049H182.211V38.2363Z" fill="#3EC1F3"/>
<path d="M119.36 38.2363H133.601V110.049H101.674V55.8989C101.674 51.2145 103.538 46.7219 106.854 43.4095C110.171 40.0971 114.67 38.2363 119.36 38.2363Z" fill="#3EC1F3"/>
<path d="M116.775 95.9743C120.672 95.9743 123.831 92.5261 123.831 88.2726C123.831 84.019 120.672 80.5709 116.775 80.5709C112.878 80.5709 109.719 84.019 109.719 88.2726C109.719 92.5261 112.878 95.9743 116.775 95.9743Z" fill="#F4E6D8"/>
<path d="M126.699 88.4387H106.851C106.85 90.4073 107.437 92.3315 108.536 93.9655C109.635 95.5996 111.197 96.8695 113.023 97.6131V100.12H120.527V97.6131C122.353 96.8695 123.914 95.5996 125.014 93.9655C126.113 92.3315 126.7 90.4073 126.699 88.4387Z" fill="#4756DF"/>
<path d="M101.307 69.1999L132.996 56.3533" stroke="#4756DF" stroke-width="2" stroke-miterlimit="10" stroke-linecap="round"/>
<path d="M133.027 38.2363V110.049" stroke="#4756DF" stroke-width="2" stroke-miterlimit="10"/>
<path d="M311.645 226.672V199.099L294.963 182.15H248.079L231.397 199.099V224.663H173.008V214.032C154.312 212.02 160.063 198.234 149.709 198.234H131.302C129.96 198.229 128.645 198.609 127.515 199.33L101.527 183.291H74.7795L41.271 203.971H41.3432V230.009L18.8379 243.899V267.741H328.327V243.614L311.645 226.672Z" fill="#F5EBDD"/>
<path d="M339.547 267.747H321.425C321.425 262.752 325.482 257.695 330.486 257.695C335.49 257.695 339.547 262.752 339.547 267.747Z" fill="#FFB7D5"/>
<path d="M348.982 267.747H335.519C335.519 264.037 338.534 260.28 342.248 260.28C345.963 260.28 348.982 264.037 348.982 267.747Z" fill="#FFB7D5"/>
<path d="M84.5125 147.113C93.2974 144.397 104.592 140.493 138.964 168.564C173.335 196.636 186.34 178.277 182.823 174.035C179.999 170.62 164.23 179.835 175.967 192.258C187.121 204.071 219.811 192.772 228.775 185.541C241.532 175.251 259.795 167.157 275.894 166.574" stroke="#FFB7D5" stroke-width="2" stroke-linecap="round" stroke-linejoin="round" stroke-dasharray="12 12"/>
<path d="M108.291 203.977L74.7798 183.297" stroke="#FFB7D5" stroke-width="2" stroke-linecap="round" stroke-linejoin="round"/>
<path d="M41.657 203.977H108.363V267.433" stroke="#FFB7D5" stroke-width="2" stroke-linecap="round" stroke-linejoin="round"/>
<path d="M40.4805 267.553L40.7942 230.322" stroke="#FFB7D5" stroke-width="2" stroke-linecap="round" stroke-linejoin="round"/>
<path d="M19.1519 243.905H40.4084" stroke="#FFB7D5" stroke-width="2" stroke-linecap="round" stroke-linejoin="round"/>
<path d="M40.8413 239.453H107.858" stroke="#FFB7D5" stroke-width="2" stroke-linecap="round" stroke-linejoin="round"/>
<path d="M230.676 248.934H278.137" stroke="#FFB7D5" stroke-width="2" stroke-linecap="round" stroke-linejoin="round"/>
<path d="M108.291 203.977H123.929" stroke="#FFB7D5" stroke-width="2" stroke-linecap="round" stroke-linejoin="round"/>
<path d="M231.711 199.095H278.281V267.433" stroke="#FFB7D5" stroke-width="2" stroke-linecap="round" stroke-linejoin="round"/>
<path d="M278.281 267.12V199.095H311.018" stroke="#FFB7D5" stroke-width="2" stroke-linecap="round" stroke-linejoin="round"/>
<path d="M154.886 214.605H172.695" stroke="#FFB7D5" stroke-width="2" stroke-linecap="round" stroke-linejoin="round"/>
<path d="M294.963 267.433V243.62H327.835" stroke="#FFB7D5" stroke-width="2" stroke-linecap="round" stroke-linejoin="round"/>
<path d="M294.781 182.332L278.281 199.095" stroke="#FFB7D5" stroke-width="2" stroke-linecap="round" stroke-linejoin="round"/>
<path d="M278.281 226.672L294.963 243.62" stroke="#FFB7D5" stroke-width="2" stroke-linecap="round" stroke-linejoin="round"/>
<path d="M311.162 225.954H278.425" stroke="#FFB7D5" stroke-width="2" stroke-linecap="round" stroke-linejoin="round"/>
<path d="M131.653 198.807C121.299 198.807 127.05 212.594 108.354 214.605H154.958C136.253 212.597 142.007 198.807 131.653 198.807Z" stroke="#FFB7D5" stroke-width="2" stroke-linecap="round" stroke-linejoin="round"/>
<path d="M108.354 267.12V214.609H154.949V267.434" stroke="#FFB7D5" stroke-width="2" stroke-linecap="round" stroke-linejoin="round"/>
<path d="M154.886 267.12V229.83H230.679V267.433" stroke="#FFB7D5" stroke-width="2" stroke-linecap="round" stroke-linejoin="round"/>
<path d="M155.021 229.128L172.528 224.084" stroke="#FFB7D5" stroke-width="2" stroke-linecap="round" stroke-linejoin="round"/>
<path d="M230.679 224.974V229.83H154.886" stroke="#FFB7D5" stroke-width="2" stroke-linecap="round" stroke-linejoin="round"/>
<path d="M169.943 238.45H170.018C171.38 238.45 172.685 238.99 173.648 239.951C174.611 240.913 175.151 242.217 175.151 243.576V267.75H164.798V243.576C164.798 242.902 164.931 242.234 165.19 241.612C165.448 240.989 165.827 240.423 166.305 239.947C166.783 239.471 167.351 239.093 167.975 238.837C168.599 238.58 169.268 238.448 169.943 238.45Z" fill="#FFB7D5"/>
<path d="M216.253 238.45H216.341C217.702 238.45 219.008 238.99 219.97 239.951C220.933 240.913 221.474 242.217 221.474 243.576V267.75H211.12V243.576C211.12 242.217 211.661 240.913 212.623 239.951C213.586 238.99 214.892 238.45 216.253 238.45Z" fill="#FFB7D5"/>
<path d="M193.098 238.45H193.186C194.547 238.45 195.853 238.99 196.815 239.951C197.778 240.913 198.319 242.217 198.319 243.576V267.75H187.965V243.576C187.965 242.217 188.506 240.913 189.468 239.951C190.431 238.99 191.737 238.45 193.098 238.45Z" fill="#FFB7D5"/>
<path d="M312.179 250.225H312.267C313.628 250.225 314.933 250.765 315.896 251.726C316.859 252.688 317.4 253.992 317.4 255.351V267.747H307.046V255.351C307.046 253.992 307.586 252.688 308.549 251.726C309.512 250.765 310.817 250.225 312.179 250.225Z" fill="#FFB7D5"/>
<path d="M55.1075 250.225H55.1859C56.5472 250.225 57.8528 250.765 58.8154 251.726C59.7781 252.688 60.3188 253.992 60.3188 255.351V267.747H49.9651V255.351C49.9651 254.678 50.0979 254.011 50.3558 253.389C50.6138 252.767 50.9919 252.202 51.4685 251.726C51.9451 251.25 52.511 250.873 53.1337 250.615C53.7565 250.358 54.424 250.225 55.098 250.225H55.1075Z" fill="#FFB7D5"/>
<path d="M94.5115 250.225H94.5993C95.2739 250.224 95.942 250.356 96.5655 250.613C97.189 250.871 97.7556 251.248 98.2329 251.724C98.7102 252.2 99.0889 252.766 99.3472 253.388C99.6055 254.01 99.7385 254.677 99.7385 255.351V267.747H89.3848V255.351C89.3848 253.993 89.9247 252.69 90.886 251.729C91.8472 250.767 93.1512 250.227 94.5115 250.225Z" fill="#FFB7D5"/>
<path d="M74.808 250.225H74.8959C76.2572 250.225 77.5628 250.765 78.5254 251.726C79.488 252.688 80.0288 253.992 80.0288 255.351V267.747H69.675V255.351C69.675 253.992 70.2158 252.688 71.1785 251.726C72.1411 250.765 73.4467 250.225 74.808 250.225Z" fill="#FFB7D5"/>
<path d="M60.3252 213.17H49.9714V230.692H60.3252V213.17Z" fill="#FFB7D5"/>
<path d="M99.7322 213.17H89.3784V230.692H99.7322V213.17Z" fill="#FFB7D5"/>
<path d="M80.0288 213.17H69.675V230.692H80.0288V213.17Z" fill="#FFB7D5"/>
<path d="M127.766 223.51H119.163V236.435H127.766V223.51Z" fill="#FFB7D5"/>
<path d="M144.137 223.51H135.534V236.435H144.137V223.51Z" fill="#FFB7D5"/>
<path d="M127.766 246.205H119.163V259.13H127.766V246.205Z" fill="#FFB7D5"/>
<path d="M144.137 246.205H135.534V259.13H144.137V246.205Z" fill="#FFB7D5"/>
<path d="M250.586 206.277H241.983V219.202H250.586V206.277Z" fill="#FFB7D5"/>
<path d="M266.958 206.277H258.355V219.202H266.958V206.277Z" fill="#FFB7D5"/>
<path d="M300.036 206.277H291.433V219.202H300.036V206.277Z" fill="#FFB7D5"/>
<path d="M250.586 228.969H241.983V241.894H250.586V228.969Z" fill="#FFB7D5"/>
<path d="M266.958 228.969H258.355V241.894H266.958V228.969Z" fill="#FFB7D5"/>
<path d="M86.1438 130.873C86.1438 137.338 79.2413 144.804 76.5054 144.804C73.7695 144.804 66.8701 137.338 66.8701 130.873C66.9157 128.351 67.951 125.947 69.7533 124.18C71.5556 122.412 73.9808 121.422 76.5069 121.422C79.0331 121.422 81.4583 122.412 83.2606 124.18C85.0628 125.947 86.0982 128.351 86.1438 130.873Z" fill="#FFB7D5"/>
<path d="M76.5053 133.891C78.174 133.891 79.5267 132.54 79.5267 130.873C79.5267 129.207 78.174 127.856 76.5053 127.856C74.8366 127.856 73.4839 129.207 73.4839 130.873C73.4839 132.54 74.8366 133.891 76.5053 133.891Z" fill="white"/>
<path d="M296.689 152.102C296.689 158.566 289.786 166.032 287.053 166.032C284.321 166.032 277.418 158.566 277.418 152.102C277.418 149.55 278.433 147.102 280.24 145.298C282.047 143.493 284.498 142.479 287.053 142.479C289.609 142.479 292.06 143.493 293.867 145.298C295.674 147.102 296.689 149.55 296.689 152.102Z" fill="#FFB7D5"/>
<path d="M287.054 155.119C288.722 155.119 290.075 153.768 290.075 152.102C290.075 150.435 288.722 149.084 287.054 149.084C285.385 149.084 284.032 150.435 284.032 152.102C284.032 153.768 285.385 155.119 287.054 155.119Z" fill="white"/>
<path d="M9.86182 267.747H27.984C27.984 262.752 23.9272 257.695 18.9229 257.695C13.9186 257.695 9.86182 262.752 9.86182 267.747Z" fill="#FFB7D5"/>
<path d="M0.427246 267.747H13.8903C13.8903 264.037 10.8751 260.28 7.16031 260.28C3.44552 260.28 0.427246 264.037 0.427246 267.747Z" fill="#FFB7D5"/>
<path d="M164.619 89.88C142.289 103.513 134.524 141.489 129.792 155.345C124.675 170.328 113.405 169.987 100.328 174.348C87.2511 178.71 87.7374 188.22 87.7374 188.22C84.6808 190.299 81.7602 192.571 78.9932 195.022L95.5498 216.153C99.456 213.462 105.254 210.087 113.208 205.29C129.636 195.379 144.341 186.073 153.832 175.733C163.323 165.393 188.266 120.054 188.266 120.054L164.619 89.88Z" fill="#4856DF"/>
<path d="M95.5501 216.153L78.9904 195.025C71.5859 201.605 67.1495 207.872 64.9187 211.519L88.2648 241.305C91.5529 235.351 88.9394 226.973 89.2061 223.316C89.3849 221.113 91.3866 219.023 95.5501 216.153Z" fill="#30242A"/>
<path d="M63.105 214.803L86.0589 244.09C86.9426 243.293 87.6851 242.352 88.2552 241.308L64.9122 211.522C64.251 212.583 63.6477 213.678 63.105 214.803Z" fill="#3EC1F3"/>
<path d="M87.0598 217.407L91.5056 219.879" stroke="white" stroke-width="2" stroke-linecap="round" stroke-linejoin="round"/>
<path d="M85.0801 221.875L89.5354 222.884" stroke="white" stroke-width="2" stroke-linecap="round" stroke-linejoin="round"/>
<path d="M93.0305 196.639L85.0989 202.831" stroke="#3EC1F3" stroke-width="2" stroke-miterlimit="10" stroke-linecap="round"/>
<path d="M89.0146 191.51L81.083 197.701" stroke="#3EC1F3" stroke-width="2" stroke-miterlimit="10" stroke-linecap="round"/>
<path d="M97.0466 201.768L89.115 207.96" stroke="#3EC1F3" stroke-width="2" stroke-miterlimit="10" stroke-linecap="round"/>
<path d="M101.062 206.897L93.1309 213.089" stroke="#3EC1F3" stroke-width="2" stroke-miterlimit="10" stroke-linecap="round"/>
<path d="M87.0193 188.492L104.423 210.727" stroke="#3EC1F3" stroke-width="2" stroke-miterlimit="10" stroke-linecap="round"/>
<path d="M171.531 148.937C167.75 142.984 164.051 136.404 161.24 129.614" stroke="#30242A" stroke-width="2" stroke-linecap="round" stroke-linejoin="round"/>
<path d="M177.752 6.35158C179.262 6.35158 180.485 5.12971 180.485 3.62245C180.485 2.11519 179.262 0.893311 177.752 0.893311C176.243 0.893311 175.02 2.11519 175.02 3.62245C175.02 5.12971 176.243 6.35158 177.752 6.35158Z" fill="#4756DF"/>
<path d="M186.428 43.4063L186.24 40.2353C189.895 40.6928 192.602 40.1508 194.538 39.1606L186.24 32.4897C186.24 32.4897 189.113 31.343 187.388 25.3082L196.625 21.9555C196.138 20.7022 195.815 17.6816 194.883 14.4355L189.383 16.8262C188.099 19.287 186.258 21.4146 184.006 23.0396C183.075 22.0786 182.036 21.229 180.909 20.5079C180.758 20.4108 180.595 20.3199 180.445 20.229H180.429C180.275 20.1413 180.115 20.0567 179.961 19.9752H179.936C179.779 19.8969 179.623 19.8185 179.463 19.7496L179.431 19.6932C179.277 19.6212 179.117 19.5585 178.957 19.4958H178.913C178.753 19.4394 178.6 19.3862 178.437 19.336H178.383C178.226 19.289 178.07 19.2483 177.906 19.2138H177.85C177.69 19.1794 177.536 19.1543 177.373 19.1355H177.31C177.153 19.1198 176.996 19.1104 176.836 19.1073C175.465 19.0885 174.107 19.6462 172.974 21.2285C172.298 22.1459 171.931 23.2541 171.926 24.3932C171.948 27.7616 175.086 30.9732 177.888 31.9132C175.672 36.5788 168.516 39.4896 165.771 40.4578C165.858 41.5263 165.943 42.5195 166.018 43.4063H186.428Z" fill="#EAA58B"/>
<path d="M242.256 62.6513C240.957 62.6513 240.33 61.5985 240.854 60.3013L245.246 49.4693L245.212 49.438L245.287 49.3659C246.501 48.2266 247.632 47.0015 248.669 45.6999C250.652 43.1776 251.248 41.3446 250.552 40.5957C250.352 40.3946 250.088 40.2703 249.805 40.2448C249.518 40.2101 249.227 40.2271 248.945 40.2949C246.705 40.7837 242.868 43.8325 238.592 48.8615C233.418 54.937 223.356 66.9596 223.356 66.9596C222.308 66.1606 220.786 64.807 218.963 63.1745L204.487 81.7615C207.589 84.1729 210.901 86.3026 214.383 88.1253C215.04 86.0946 216.293 84.3085 217.981 82.9993C219.668 81.6901 221.711 80.9185 223.844 80.785C225.977 80.6514 228.1 81.1621 229.938 82.2506C231.776 83.339 233.243 84.9548 234.149 86.8876C242.871 80.3797 249.761 68.7675 252.99 62.6513H242.256Z" fill="#EAA58B"/>
<path d="M194.293 47.4266H189.869C198.306 52.5026 194.576 62.078 194.576 62.078C194.576 62.078 206.1 70.1213 198.319 79.8879C198.89 79.288 199.373 78.6108 199.756 77.8763C199.756 77.8763 201.613 79.5808 204.462 81.7616L218.938 63.1747C212.215 57.1838 201.299 47.4266 194.293 47.4266Z" fill="#FFB7D5"/>
<path d="M149.998 62.9333C149.998 62.9333 141.527 69.9865 147.253 79.4303L150.268 62.5103L149.998 62.9333Z" fill="#FF7235"/>
<path d="M166.006 43.4063V43.5097L166.37 43.4063H166.006Z" fill="#FF7235"/>
<path d="M177.862 31.9133C175.073 30.9733 171.935 27.771 171.901 24.3933L164.713 27.5266C164.992 31.4809 165.397 36.466 165.733 40.4579C168.503 39.4897 175.666 36.5788 177.862 31.9133Z" fill="#30242A"/>
<path d="M186.24 32.4898L194.538 39.1607C196.182 38.3696 197.485 37.012 198.206 35.338C199.43 32.2799 198.639 29.6479 197.685 26.2326C197.685 26.2326 200.117 24.6064 199.737 23.0992C199.423 21.8741 196.653 22.0433 196.653 22.0433L196.625 21.965L187.388 25.3176C189.113 31.343 186.24 32.4898 186.24 32.4898Z" fill="#30242A"/>
<path d="M184.005 23.0334C186.258 21.4084 188.099 19.2808 189.383 16.82L180.912 20.5017C182.038 21.223 183.076 22.0726 184.005 23.0334Z" fill="#30242A"/>
<path d="M179.464 19.723L179.431 19.6933L179.464 19.723Z" fill="#4756DF"/>
<path d="M172.968 21.1974C174.1 19.615 175.459 19.0573 176.83 19.0761H176.799C176.011 10.3811 177.953 5.65289 179.393 3.40942C178.012 3.61308 176.649 3.92103 175.315 4.33062C165.334 7.34802 164.189 17.1773 164.468 23.0241C164.522 24.196 164.622 25.7564 164.744 27.5173L171.932 24.384C171.929 23.2387 172.292 22.1223 172.968 21.1974Z" fill="#4756DF"/>
<path d="M180.429 20.2135C180.275 20.1257 180.115 20.0411 179.961 19.9597C180.121 20.0411 180.275 20.1257 180.429 20.2135Z" fill="#3EC1F3"/>
<path d="M180.909 20.5018C180.758 20.4046 180.595 20.3138 180.444 20.2229C180.601 20.32 180.758 20.4046 180.909 20.5018Z" fill="#3EC1F3"/>
<path d="M178.377 19.3205C178.22 19.2735 178.063 19.2328 177.9 19.1983C178.06 19.2328 178.22 19.2735 178.377 19.3205Z" fill="#3EC1F3"/>
<path d="M179.936 19.9472C179.779 19.8689 179.622 19.7905 179.462 19.7216C179.622 19.7905 179.779 19.8689 179.936 19.9472Z" fill="#3EC1F3"/>
<path d="M177.304 19.1042C177.147 19.0885 176.99 19.0791 176.83 19.076C176.987 19.0666 177.147 19.0885 177.304 19.1042Z" fill="#3EC1F3"/>
<path d="M177.844 19.1888C177.684 19.1543 177.53 19.1292 177.367 19.1104C177.527 19.1292 177.684 19.1543 177.844 19.1888Z" fill="#3EC1F3"/>
<path d="M178.907 19.4927C178.747 19.4363 178.593 19.3831 178.43 19.3329C178.59 19.3799 178.747 19.4363 178.907 19.4927Z" fill="#3EC1F3"/>
<path d="M179.431 19.6933C179.277 19.6212 179.117 19.5586 178.957 19.4959C179.117 19.5711 179.271 19.6338 179.431 19.6933Z" fill="#3EC1F3"/>
<path d="M176.799 19.0667H176.83C176.987 19.0667 177.144 19.0667 177.304 19.0949H177.367C177.527 19.1137 177.68 19.1387 177.844 19.1732H177.9C178.06 19.2077 178.214 19.2484 178.377 19.2954H178.43C178.59 19.3455 178.744 19.3988 178.907 19.4552H178.951C179.111 19.5179 179.265 19.5805 179.425 19.6526L179.463 19.6683C179.623 19.7372 179.776 19.8155 179.936 19.8939H179.961C180.121 19.9753 180.275 20.0599 180.429 20.1477H180.445C180.601 20.2385 180.758 20.3294 180.909 20.4265L189.38 16.7449L194.88 14.3541C193.202 8.50734 189.546 1.90227 179.39 3.34361C177.953 5.64974 176.011 10.3779 176.799 19.0667Z" fill="#3EC1F3"/>
<path d="M224.492 80.7495C222.239 80.7502 220.044 81.4646 218.224 82.7901C216.403 84.1155 215.051 85.9835 214.361 88.1254C218.979 90.4691 223.864 91.9105 227.658 90.5161C229.981 89.6229 232.164 88.401 234.14 86.8877C233.284 85.0532 231.921 83.5009 230.212 82.4135C228.503 81.3261 226.518 80.7488 224.492 80.7495Z" fill="#CA7358"/>
<path d="M195.746 98.4151C206.1 91.6628 198.884 80.1666 198.319 79.8877C206.084 70.1211 194.579 62.0778 194.579 62.0778C194.579 62.0778 198.306 52.5024 189.873 47.4264H186.666L186.428 43.4063H166.379L166.015 43.5097L166.354 47.4264H159.884L150.268 62.5134L147.253 79.4334L147.407 79.6872C147.304 79.8773 147.199 80.0684 147.093 80.2606C145.148 84.0832 144.862 87.3356 145.361 89.9739C146.399 95.4917 150.848 98.3995 150.848 98.3995H195.746V98.4151Z" fill="#FF7235"/>
<path d="M150.861 103.45H195.73V99.4209V98.4151H150.861V99.4209V103.45Z" fill="#30242A"/>
<path d="M146.174 62.0779H194.579" stroke="#A15842" stroke-width="2" stroke-miterlimit="10" stroke-linecap="round"/>
<path d="M147.328 79.8878H198.57" stroke="#A15842" stroke-width="2" stroke-miterlimit="10" stroke-linecap="round"/>
<path d="M187.388 49.4381L187.281 47.7399" stroke="#A15842" stroke-width="2" stroke-miterlimit="10" stroke-linecap="round"/>
<path d="M181.922 48.5765L181.637 43.9799" stroke="#A15842" stroke-width="2" stroke-miterlimit="10" stroke-linecap="round"/>
<path d="M177.608 48.5765L177.323 43.9799" stroke="#A15842" stroke-width="2" stroke-miterlimit="10" stroke-linecap="round"/>
<path d="M173.294 48.5765L173.009 43.9799" stroke="#A15842" stroke-width="2" stroke-miterlimit="10" stroke-linecap="round"/>
<path d="M222.754 66.7183L219.315 70.9828" stroke="#A15842" stroke-width="2" stroke-linecap="round" stroke-linejoin="round"/>
<path d="M182.211 39.9597C183.483 40.4039 184.8 40.7055 186.139 40.8589" stroke="#A15842" stroke-width="2" stroke-miterlimit="10" stroke-linecap="round"/>
<path d="M248.669 45.7C248.685 46.5429 249.297 47.1382 250.26 47.1382H259.644C260.943 47.1382 262.424 46.0854 262.951 44.785L265.813 37.71C266.337 36.4128 265.709 35.36 264.41 35.36H255.023C253.724 35.36 252.243 36.4128 251.719 37.71L250.552 40.5958C251.248 41.3478 250.652 43.1933 248.669 45.7Z" fill="#F5EBDD"/>
<path d="M267.993 30.7666H265.458L265.236 31.3149C265.06 31.7231 264.775 32.0753 264.413 32.3333C264.05 32.5912 263.624 32.7451 263.18 32.7782H258.342C257.536 32.7782 257.144 32.1233 257.47 31.3149L257.693 30.7666H255.158C253.856 30.7666 252.378 31.8194 251.851 33.1197L248.946 40.2982C249.227 40.2303 249.518 40.2134 249.805 40.2481C250.088 40.2736 250.352 40.3979 250.552 40.599L251.719 37.7132C252.243 36.416 253.724 35.3632 255.023 35.3632H264.41C265.709 35.3632 266.337 36.416 265.813 37.7132L262.951 44.7883C262.424 46.0886 260.943 47.1414 259.645 47.1414H250.26C249.284 47.1414 248.691 46.5461 248.67 45.7032C247.629 47.004 246.495 48.2281 245.278 49.3661L245.237 49.4695L240.845 60.3014C240.321 61.5986 240.948 62.6514 242.247 62.6514H255.086C256.385 62.6514 257.866 61.5986 258.39 60.3014L269.371 33.1197C269.923 31.8194 269.295 30.7666 267.993 30.7666ZM255.443 58.3399C255.272 58.7367 254.996 59.0792 254.643 59.3301C254.294 59.6012 253.868 59.7568 253.426 59.775H246.26C245.463 59.775 245.08 59.1327 245.4 58.3399C245.574 57.9397 245.855 57.5946 246.211 57.3417C246.567 57.0888 246.985 56.9377 247.421 56.9049H254.612C255.39 56.908 255.773 57.5503 255.453 58.3431L255.443 58.3399Z" fill="#4756DF"/>
<path d="M254.596 56.9079H247.405C246.969 56.9408 246.551 57.0918 246.195 57.3447C245.839 57.5976 245.559 57.9428 245.385 58.343C245.071 59.1357 245.447 59.778 246.244 59.778H253.435C253.878 59.7598 254.303 59.6043 254.653 59.3331C255.005 59.0822 255.282 58.7398 255.453 58.343C255.773 57.5502 255.39 56.9079 254.596 56.9079Z" fill="#3EC1F3"/>
<path d="M258.342 32.7782H263.18C263.624 32.7451 264.05 32.5912 264.413 32.3333C264.775 32.0753 265.059 31.7231 265.235 31.3149L265.458 30.7666H257.693L257.47 31.3149C257.144 32.1233 257.536 32.7782 258.342 32.7782Z" fill="#3EC1F3"/>
<path d="M202.059 11.8099L182.788 20.4266" stroke="#30242A" stroke-width="2" stroke-linecap="round" stroke-linejoin="round"/>
<path d="M195.869 29.7827C195.291 29.9363 193.402 29.6198 193.092 27.9999" stroke="black" stroke-width="2" stroke-miterlimit="10" stroke-linecap="round"/>
<path d="M192.897 21.5891C193.41 21.5891 193.826 21.1738 193.826 20.6616C193.826 20.1494 193.41 19.7341 192.897 19.7341C192.384 19.7341 191.969 20.1494 191.969 20.6616C191.969 21.1738 192.384 21.5891 192.897 21.5891Z" fill="#30242A"/>
<path d="M176.956 24.8696L180.328 27.0128" stroke="#A15842" stroke-width="2" stroke-miterlimit="10" stroke-linecap="round"/>
<path d="M184.225 22.4382L187.965 25.3084" stroke="#30242A" stroke-width="2" stroke-linecap="round" stroke-linejoin="round"/>
<path d="M177.034 32.2047L187.102 32.4898" stroke="#30242A" stroke-width="2" stroke-linecap="round" stroke-linejoin="round"/>
<path d="M216.14 99.4209C217.284 99.4209 218.381 99.8748 219.19 100.683C219.999 101.491 220.454 102.587 220.454 103.729V103.729C220.456 104.296 220.345 104.858 220.129 105.382C219.913 105.907 219.596 106.383 219.195 106.785C218.794 107.187 218.318 107.505 217.794 107.723C217.27 107.941 216.708 108.053 216.14 108.053" stroke="#FF7235" stroke-width="2" stroke-miterlimit="10"/>
<path d="M222.192 99.4209C223.334 99.4242 224.428 99.8796 225.235 100.687C226.041 101.495 226.494 102.589 226.494 103.729C226.497 104.872 226.046 105.97 225.239 106.78C224.433 107.591 223.337 108.049 222.192 108.053" stroke="#FF7235" stroke-width="2" stroke-miterlimit="10"/>
<path d="M253.288 99.9944H205.767C203.719 99.9944 202.059 101.653 202.059 103.698V103.761C202.059 105.806 203.719 107.464 205.767 107.464H253.288C255.336 107.464 256.996 105.806 256.996 103.761V103.698C256.996 101.653 255.336 99.9944 253.288 99.9944Z" fill="#30242A"/>
<path d="M261.258 259.208L232.635 100.183L225.273 101.505L253.896 260.53L261.258 259.208Z" fill="#30242A"/>
<path d="M205.83 99.9944H205.767C203.719 99.9944 202.059 101.653 202.059 103.698V103.761C202.059 105.806 203.719 107.464 205.767 107.464H205.83C207.878 107.464 209.538 105.806 209.538 103.761V103.698C209.538 101.653 207.878 99.9944 205.83 99.9944Z" stroke="#FF7235" stroke-width="2" stroke-miterlimit="10"/>
<path d="M241.729 99.6559C242.576 99.9501 243.31 100.5 243.83 101.23C244.349 101.96 244.628 102.834 244.628 103.729V103.729C244.628 104.566 244.384 105.385 243.925 106.086C243.467 106.786 242.814 107.338 242.046 107.674" stroke="#FF7235" stroke-width="2" stroke-miterlimit="10" stroke-linecap="round"/>
<path d="M246.749 99.6559C247.596 99.9501 248.33 100.5 248.85 101.23C249.37 101.96 249.649 102.834 249.648 103.729V103.729C249.648 104.566 249.404 105.385 248.945 106.086C248.487 106.786 247.834 107.338 247.066 107.674" stroke="#FF7235" stroke-width="2" stroke-miterlimit="10" stroke-linecap="round"/>
<path d="M257.57 260.28H152.586V267.75H257.57V260.28Z" fill="#30242A"/>
<path d="M159.056 276.94C164.14 276.94 168.262 272.824 168.262 267.747C168.262 262.67 164.14 258.554 159.056 258.554C153.972 258.554 149.851 262.67 149.851 267.747C149.851 272.824 153.972 276.94 159.056 276.94Z" fill="#30242A"/>
<path d="M159.056 271.193C160.962 271.193 162.507 269.65 162.507 267.747C162.507 265.843 160.962 264.3 159.056 264.3C157.15 264.3 155.605 265.843 155.605 267.747C155.605 269.65 157.15 271.193 159.056 271.193Z" fill="#FFB7D5"/>
<path d="M259.202 276.94C264.286 276.94 268.408 272.824 268.408 267.747C268.408 262.67 264.286 258.554 259.202 258.554C254.118 258.554 249.997 262.67 249.997 267.747C249.997 272.824 254.118 276.94 259.202 276.94Z" fill="#30242A"/>
<path d="M259.202 271.193C261.108 271.193 262.653 269.65 262.653 267.747C262.653 265.843 261.108 264.3 259.202 264.3C257.296 264.3 255.751 265.843 255.751 267.747C255.751 269.65 257.296 271.193 259.202 271.193Z" fill="#FFB7D5"/>
<path d="M173.438 267.747H144.677C144.733 263.975 146.272 260.376 148.963 257.728C151.654 255.08 155.28 253.596 159.058 253.596C162.835 253.596 166.461 255.08 169.152 257.728C171.843 260.376 173.383 263.975 173.438 267.747Z" fill="#FF7235"/>
<path d="M273.581 267.747H244.82C244.875 263.975 246.415 260.376 249.106 257.728C251.797 255.08 255.423 253.596 259.2 253.596C262.978 253.596 266.604 255.08 269.295 257.728C271.986 260.376 273.525 263.975 273.581 267.747Z" fill="#FF7235"/>
<path d="M187.476 235.289H214.377C214.69 230.589 215.581 224.027 216.676 215.016C218.986 195.987 220.717 178.688 218.408 164.851C216.099 151.014 195.73 103.438 195.73 103.438H157.368C154.356 129.398 179.513 158.917 187.52 171.177C196.179 184.441 188.963 193.089 184.344 206.061C179.726 219.033 187.52 224.513 187.52 224.513C187.281 228.1 187.266 231.699 187.476 235.289Z" fill="#4856DF"/>
<path d="M191.824 256.833H229.7C227.024 250.567 218.816 247.468 216.099 244.999C214.427 243.482 214.038 240.524 214.377 235.285H187.476C188.063 245.312 190.3 252.779 191.824 256.833Z" fill="#30242A"/>
<path d="M193.293 260.28H230.535C230.454 259.092 230.172 257.927 229.7 256.833H191.824C192.251 258.008 192.741 259.158 193.293 260.28Z" fill="#3EC1F3"/>
<path d="M197.936 225.522V234.953" stroke="#3EC1F3" stroke-width="2" stroke-miterlimit="10" stroke-linecap="round"/>
<path d="M191.416 225.522V234.953" stroke="#3EC1F3" stroke-width="2" stroke-miterlimit="10" stroke-linecap="round"/>
<path d="M204.456 225.522V234.953" stroke="#3EC1F3" stroke-width="2" stroke-miterlimit="10" stroke-linecap="round"/>
<path d="M210.975 225.522V234.953" stroke="#3EC1F3" stroke-width="2" stroke-miterlimit="10" stroke-linecap="round"/>
<path d="M187.589 225.234H215.199" stroke="#3EC1F3" stroke-width="2" stroke-miterlimit="10" stroke-linecap="round"/>
<path d="M204.923 125.738C203.982 123.413 203.085 121.163 202.222 119.048L188.103 116.573V116.623C187.824 118.209 188.187 119.841 189.113 121.159C190.038 122.478 191.45 123.375 193.038 123.654L204.923 125.738Z" fill="#3EC1F3"/>
<path d="M210.113 243.044L214.571 241.22" stroke="white" stroke-width="2" stroke-linecap="round" stroke-linejoin="round"/>
<path d="M212.416 247.355L216.14 244.353" stroke="white" stroke-width="2" stroke-linecap="round" stroke-linejoin="round"/>
<path d="M258.722 59.4866C258.722 59.4866 263.66 59.6809 264.056 55.3726C264.056 55.3726 267.582 53.7526 266.66 50.5347C266.66 50.5347 269.885 49.6135 268.963 46.3924C268.903 46.1888 270.795 45.8222 270.701 43.1682C270.563 39.2954 267.934 36.5068 266.785 36.2185C263.334 35.3568 264.646 40.9561 264.482 40.8151C262.471 39.0918 259.535 38.3084 258.487 39.1858C256.661 40.7148 257.928 42.7578 257.928 42.7578C257.928 42.7578 255.588 42.2063 254.442 43.8952C253.049 45.9444 255.541 47.8557 255.541 47.8557C255.541 47.8557 252.93 48.1471 253.366 50.5598C253.849 53.2576 257.906 53.8592 259.83 56.6854L258.722 59.4866Z" fill="#EAA58B"/>
<path d="M255.434 47.3607C258.182 48.3916 262.964 50.6758 264.322 54.4452" stroke="#A15842" stroke-width="2" stroke-linecap="round" stroke-linejoin="round"/>
<path d="M258.515 42.5667C260.868 43.8482 265.025 46.4802 266.898 49.9143" stroke="#A15842" stroke-width="2" stroke-linecap="round" stroke-linejoin="round"/>
<path d="M264.928 40.3733C266.475 41.7457 268.153 43.5724 269.179 45.7" stroke="#A15842" stroke-width="2" stroke-linecap="round" stroke-linejoin="round"/>
<path d="M166.392 47.4266C166.392 47.4266 176.701 62.9334 173.871 77.8763C171.857 88.5046 147.695 97.7134 133.602 100.847V92.5246C133.602 92.5246 162.94 85.3462 166.392 72.418C168.484 64.5847 160.063 47.4266 160.063 47.4266" fill="#F5EBDD"/>
<path d="M234.56 97.7134C232.834 93.4019 227.369 88.8085 221.041 86.5086C208.88 82.0937 179.334 88.5202 179.334 88.5202L174.907 79.0795L153.123 89.7328C156.261 95.8459 160.026 100.985 163.872 104.538C165.182 102.918 166.939 101.719 168.926 101.088C170.912 100.458 173.041 100.424 175.046 100.992C177.052 101.559 178.846 102.703 180.206 104.28C181.567 105.858 182.433 107.8 182.697 109.864C194.742 108.924 208.064 103.425 211.841 100.032C211.841 100.032 214.141 102.044 216.73 102.329C216.73 103.19 212.704 114.68 219.895 112.095C219.895 112.095 221.906 114.68 224.784 111.81C224.784 111.81 226.798 114.68 229.675 112.095C229.675 112.095 231.244 113.076 233.412 110.66C235.997 107.74 236.763 103.194 234.56 97.7134Z" fill="#EAA58B"/>
<path d="M160.063 47.4266H159.351C153.512 47.4266 143.952 51.738 145.104 62.9052C146.115 72.2533 148.831 81.3374 153.12 89.7078L174.904 79.0544L160.063 47.4266Z" fill="#FFB7D5"/>
<path d="M172.146 100.568C170.559 100.567 168.993 100.92 167.561 101.603C166.129 102.286 164.869 103.28 163.872 104.513C164.669 105.256 165.507 105.953 166.382 106.603C170.433 109.561 176.384 110.319 182.697 109.827C182.365 107.267 181.111 104.915 179.169 103.211C177.228 101.507 174.731 100.567 172.146 100.568Z" fill="#CA7358"/>
<path d="M220.146 111.613C221.401 109.106 224.25 102.608 222.192 98.2711" stroke="#A15842" stroke-width="2" stroke-linecap="round" stroke-linejoin="round"/>
<path d="M171.857 89.366L178.637 87.978" stroke="#A15842" stroke-width="2" stroke-linecap="round" stroke-linejoin="round"/>
<path d="M225.239 111.5C226.544 108.856 229.367 102.479 227.369 98.2711" stroke="#A15842" stroke-width="2" stroke-linecap="round" stroke-linejoin="round"/>
<path d="M230.259 111.813C231.514 109.288 234.303 102.583 232.26 98.2712" stroke="#A15842" stroke-width="2" stroke-linecap="round" stroke-linejoin="round"/>
</svg>
