<svg width="768" height="447" viewBox="0 0 768 447" fill="none" xmlns="http://www.w3.org/2000/svg">
<path d="M149.899 427L212.07 329.231L72.8356 240.694L0.931641 353.769L116.096 427H149.899Z" fill="#F0F0F0"/>
<path d="M421 113V37H459V0H273V186H432V167.814C432 164.424 432.668 161.068 433.965 157.936C435.262 154.804 437.164 151.958 439.561 149.561C441.958 147.164 444.804 145.262 447.936 143.965C451.068 142.668 454.424 142 457.814 142H459V113H421Z" fill="#F0F0F0"/>
<path d="M485 48H433V100H485V48Z" fill="#F0F0F0"/>
<path d="M636 86C633.627 86 631.307 85.2962 629.333 83.9776C627.36 82.6591 625.822 80.7849 624.913 78.5922C624.005 76.3995 623.768 73.9867 624.231 71.6589C624.694 69.3312 625.836 67.193 627.515 65.5147C629.193 63.8365 631.331 62.6936 633.659 62.2306C635.987 61.7676 638.4 62.0052 640.592 62.9135C642.785 63.8217 644.659 65.3598 645.978 67.3332C647.296 69.3066 648 71.6266 648 74C647.996 77.1815 646.731 80.2317 644.481 82.4814C642.232 84.731 639.182 85.9964 636 86ZM636 64C634.022 64 632.089 64.5865 630.444 65.6853C628.8 66.7841 627.518 68.3459 626.761 70.1732C626.004 72.0004 625.806 74.0111 626.192 75.9509C626.578 77.8907 627.53 79.6726 628.929 81.0711C630.327 82.4696 632.109 83.422 634.049 83.8078C635.989 84.1937 638 83.9957 639.827 83.2388C641.654 82.4819 643.216 81.2002 644.315 79.5557C645.414 77.9112 646 75.9778 646 74C645.997 71.3488 644.942 68.807 643.068 66.9323C641.193 65.0576 638.651 64.003 636 64Z" fill="#3F3D56"/>
<path d="M768 447H742V421H768V447ZM744 445H766V423H744V445Z" fill="#3F3D56"/>
</svg>
